<?xml version="1.0" encoding="UTF-8" standalone="no"?>
<svg
   xmlns:dc="http://purl.org/dc/elements/1.1/"
   xmlns:cc="http://creativecommons.org/ns#"
   xmlns:rdf="http://www.w3.org/1999/02/22-rdf-syntax-ns#"
   xmlns:svg="http://www.w3.org/2000/svg"
   xmlns="http://www.w3.org/2000/svg"
   xmlns:sodipodi="http://sodipodi.sourceforge.net/DTD/sodipodi-0.dtd"
   xmlns:inkscape="http://www.inkscape.org/namespaces/inkscape"
   width="580.70038"
   height="366.42499"
   version="1.1"
   id="svg4757"
   sodipodi:docname="centers.svg"
   inkscape:version="0.92.4 5da689c313, 2019-01-14">
  <sodipodi:namedview
     pagecolor="#ffffff"
     bordercolor="#666666"
     borderopacity="1"
     objecttolerance="10"
     gridtolerance="10"
     guidetolerance="10"
     inkscape:pageopacity="0"
     inkscape:pageshadow="2"
     inkscape:window-width="1600"
     inkscape:window-height="845"
     id="namedview4759"
     showgrid="false"
     inkscape:zoom="2"
     inkscape:cx="196.32268"
     inkscape:cy="218.34772"
     inkscape:window-x="0"
     inkscape:window-y="0"
     inkscape:window-maximized="1"
     inkscape:current-layer="g4755"
     fit-margin-top="20"
     fit-margin-left="20"
     fit-margin-right="20"
     fit-margin-bottom="20"
     inkscape:snap-object-midpoints="true" />
  <title
     id="title4722">Enneagram</title>
  <defs
     id="defs4726">
    <style
       type="text/css"
       id="style4724"><![CDATA[
polyline, line, circle {
	fill:none;
	stroke: black;
	stroke-width: 1;
}
text {
	font-size: 18pt;
	text-anchor: middle;
	font-family: serif;
	fill: black;
}
]]></style>
  </defs>
  <metadata
     id="Metadata">
    <rdf:RDF>
      <cc:Work
         rdf:about="">
        <dc:format>image/svg+xml</dc:format>
        <dc:type
           rdf:resource="http://purl.org/dc/dcmitype/StillImage" />
        <dc:title>Enneagram</dc:title>
        <dc:date>05.02.2008</dc:date>
        <dc:creator>
          <cc:Agent>
            <dc:title>Twisp</dc:title>
          </cc:Agent>
        </dc:creator>
        <dc:rights>
          <cc:Agent>
            <dc:title />
          </cc:Agent>
        </dc:rights>
        <dc:subject>
          <rdf:Bag>
            <rdf:li>Enneagram</rdf:li>
          </rdf:Bag>
        </dc:subject>
        <dc:description>Enneagram of Personality</dc:description>
        <dc:contributor>
          <cc:Agent>
            <dc:title />
          </cc:Agent>
        </dc:contributor>
        <cc:license
           rdf:resource="http://web.resource.org/cc/PublicDomain" />
      </cc:Work>
      <cc:License
         rdf:about="http://web.resource.org/cc/PublicDomain">
        <cc:permits
           rdf:resource="http://web.resource.org/cc/Reproduction" />
        <cc:permits
           rdf:resource="http://web.resource.org/cc/Distribution" />
        <cc:permits
           rdf:resource="http://web.resource.org/cc/DerivativeWorks" />
      </cc:License>
    </rdf:RDF>
  </metadata>
  <g
     transform="translate(174.04155,434.45419)"
     id="g4755">
    <polyline
       points=" 0, -100 -86.6025404, 50 86.6025404, 50 0, -100  "
       id="polyline4729"
       style="fill:none;stroke:#586e75;stroke-width:4.4000001;stroke-miterlimit:4;stroke-dasharray:none;stroke-opacity:1"
       transform="matrix(0.99623189,0,0,0.98599529,122.73559,-227.69759)" />
    <polyline
       points=" -64.278761, -76.6044443 -34.2020143,93.9692621 -98.4807753, -17.3648178 64.278761, -76.6044443 34.2020143,93.9692621 98.4807753, -17.3648178 -64.278761, -76.6044443 "
       id="polyline4731"
       style="fill:none;stroke:#586e75;stroke-width:4.4000001;stroke-miterlimit:4;stroke-dasharray:none;stroke-opacity:1"
       transform="matrix(0.98856823,0,0,0.98985147,122.12021,-225.33404)" />
    <g
       transform="translate(122.38204,-217.29452)"
       id="g4751"
       style="fill:#6c71c4;fill-opacity:1;stroke:none;stroke-width:5.30000019;stroke-miterlimit:4;stroke-dasharray:none;stroke-opacity:1">
      <g
         aria-label="1"
         style="font-style:normal;font-variant:normal;font-weight:bold;font-stretch:normal;font-size:29.33333397px;font-family:Cabin;-inkscape-font-specification:'Cabin Bold';font-variant-ligatures:normal;font-variant-caps:normal;font-variant-numeric:normal;font-feature-settings:normal;text-align:center;writing-mode:lr-tb;text-anchor:middle;fill:#6c71c4;fill-opacity:1;stroke:none;stroke-width:5.30000019;stroke-miterlimit:4;stroke-dasharray:none;stroke-opacity:1"
         id="text4733">
        <path
           d="m 75.944451,-107.14933 q -1.232,0.82133 -2.581333,1.056 l -0.322667,-3.168 q 0.968,-0.20533 2.170667,-1.17333 1.202667,-0.99734 1.613333,-2.024 h 2.874667 v 20.533329 h -3.754667 z"
           style="font-style:normal;font-variant:normal;font-weight:bold;font-stretch:normal;font-size:29.33333397px;font-family:Cabin;-inkscape-font-specification:'Cabin Bold';font-variant-ligatures:normal;font-variant-caps:normal;font-variant-numeric:normal;font-feature-settings:normal;text-align:center;writing-mode:lr-tb;text-anchor:middle;fill:#6c71c4;fill-opacity:1;stroke:none;stroke-width:5.30000019;stroke-miterlimit:4;stroke-dasharray:none;stroke-opacity:1"
           id="path1994" />
      </g>
      <g
         aria-label="2"
         style="font-style:normal;font-variant:normal;font-weight:bold;font-stretch:normal;font-size:29.33333397px;font-family:Cabin;-inkscape-font-specification:'Cabin Bold';font-variant-ligatures:normal;font-variant-caps:normal;font-variant-numeric:normal;font-feature-settings:normal;text-align:center;writing-mode:lr-tb;text-anchor:middle;fill:#6c71c4;fill-opacity:1;stroke:none;stroke-width:5.30000019;stroke-miterlimit:4;stroke-dasharray:none;stroke-opacity:1"
         id="text4735">
        <path
           d="m 117.10191,-29.139115 q 1.70134,-2.610667 2.31734,-3.930667 0.64533,-1.32 0.64533,-2.493334 0,-1.261333 -0.73333,-1.965333 -0.704,-0.733333 -1.96534,-0.733333 -1.408,0 -2.61066,0.674666 -1.20267,0.674667 -2.34667,1.818667 l -0.46933,-3.784 q 1.37866,-1.114667 2.87466,-1.672 1.496,-0.557333 3.31467,-0.557333 1.78933,0 3.05067,0.762666 1.26133,0.733334 1.87733,1.994667 0.64533,1.261333 0.64533,2.786667 0,1.730666 -0.76266,3.549333 -0.73334,1.818667 -2.61067,4.664 l -2.40533,3.666667 h 6.512 v 3.52 h -12.73067 z"
           style="font-style:normal;font-variant:normal;font-weight:bold;font-stretch:normal;font-size:29.33333397px;font-family:Cabin;-inkscape-font-specification:'Cabin Bold';font-variant-ligatures:normal;font-variant-caps:normal;font-variant-numeric:normal;font-feature-settings:normal;text-align:center;writing-mode:lr-tb;text-anchor:middle;fill:#6c71c4;fill-opacity:1;stroke:none;stroke-width:5.30000019;stroke-miterlimit:4;stroke-dasharray:none;stroke-opacity:1"
           id="path1991" />
      </g>
      <g
         aria-label="3"
         style="font-style:normal;font-variant:normal;font-weight:bold;font-stretch:normal;font-size:29.33333397px;font-family:Cabin;-inkscape-font-specification:'Cabin Bold';font-variant-ligatures:normal;font-variant-caps:normal;font-variant-numeric:normal;font-feature-settings:normal;text-align:center;writing-mode:lr-tb;text-anchor:middle;fill:#6c71c4;fill-opacity:1;stroke:none;stroke-width:5.30000019;stroke-miterlimit:4;stroke-dasharray:none;stroke-opacity:1"
         id="text4737">
        <path
           d="m 106.43013,49.146666 q 1.70134,0.557334 2.66934,1.848 0.99733,1.290667 0.99733,3.168001 0,2.962666 -1.99467,4.605333 -1.96533,1.642667 -5.30933,1.642667 -1.70133,0 -3.226667,-0.381334 -1.496,-0.381333 -2.552,-0.938666 l 0.909333,-3.168 Q 100.44613,57.184 102.7928,57.184 q 1.64267,0 2.58133,-0.762667 0.968,-0.762666 0.968,-2.258666 0,-3.109334 -3.784,-3.109334 h -2.08266 v -3.52 h 2.05333 q 1.584,0 2.40533,-0.704 0.85067,-0.733333 0.85067,-2.053333 0,-1.144 -0.792,-1.818667 -0.76267,-0.674667 -2.2,-0.674667 -1.17333,0 -2.288,0.352 -1.085334,0.352 -2.258667,1.026667 L 97.6888,40.346666 q 2.464,-1.290666 5.48533,-1.290666 2.93334,0 4.54667,1.466666 1.64267,1.437334 1.64267,3.784 0,1.672 -0.76267,2.933334 -0.76267,1.232 -2.17067,1.906666 z"
           style="font-style:normal;font-variant:normal;font-weight:bold;font-stretch:normal;font-size:29.33333397px;font-family:Cabin;-inkscape-font-specification:'Cabin Bold';font-variant-ligatures:normal;font-variant-caps:normal;font-variant-numeric:normal;font-feature-settings:normal;text-align:center;writing-mode:lr-tb;text-anchor:middle;fill:#6c71c4;fill-opacity:1;stroke:none;stroke-width:5.30000019;stroke-miterlimit:4;stroke-dasharray:none;stroke-opacity:1"
           id="path1988" />
      </g>
      <g
         aria-label="4"
         style="font-style:normal;font-variant:normal;font-weight:bold;font-stretch:normal;font-size:29.33333397px;font-family:Cabin;-inkscape-font-specification:'Cabin Bold';font-variant-ligatures:normal;font-variant-caps:normal;font-variant-numeric:normal;font-feature-settings:normal;text-align:center;writing-mode:lr-tb;text-anchor:middle;fill:#6c71c4;fill-opacity:1;stroke:none;stroke-width:5.30000019;stroke-miterlimit:4;stroke-dasharray:none;stroke-opacity:1"
         id="text4739">
        <path
           d="m 48.623707,105.01911 v 3.05066 h -2.64 v 4.69334 h -3.608 v -4.69334 H 32.138374 L 43.431707,92.229774 h 2.552 v 12.789336 z m -6.248,0 v -6.30667 l -4.429333,6.30667 z"
           style="font-style:normal;font-variant:normal;font-weight:bold;font-stretch:normal;font-size:29.33333397px;font-family:Cabin;-inkscape-font-specification:'Cabin Bold';font-variant-ligatures:normal;font-variant-caps:normal;font-variant-numeric:normal;font-feature-settings:normal;text-align:center;writing-mode:lr-tb;text-anchor:middle;fill:#6c71c4;fill-opacity:1;stroke:none;stroke-width:5.30000019;stroke-miterlimit:4;stroke-dasharray:none;stroke-opacity:1"
           id="path1985" />
      </g>
      <g
         aria-label="5"
         style="font-style:normal;font-variant:normal;font-weight:bold;font-stretch:normal;font-size:29.33333397px;font-family:Cabin;-inkscape-font-specification:'Cabin Bold';font-variant-ligatures:normal;font-variant-caps:normal;font-variant-numeric:normal;font-feature-settings:normal;text-align:center;writing-mode:lr-tb;text-anchor:middle;fill:#6c71c4;fill-opacity:1;stroke:none;stroke-width:5.30000019;stroke-miterlimit:4;stroke-dasharray:none;stroke-opacity:1"
         id="text4741">
        <path
           d="m -41.293353,99.85644 q 2.992,0 4.810667,1.76 1.848,1.73067 1.848,4.752 0,2.08267 -0.938667,3.608 -0.909333,1.52533 -2.552,2.34667 -1.613333,0.82133 -3.725333,0.82133 -3.226667,0 -5.632001,-1.64267 l 0.88,-3.40266 q 1.173334,0.73333 2.288,1.144 1.114667,0.38133 2.405334,0.38133 1.672,0 2.64,-0.88 0.997333,-0.88 0.997333,-2.376 0,-1.61333 -1.144,-2.52267 -1.114666,-0.90933 -3.197333,-0.90933 -1.642667,0 -3.842667,0.41067 l 1.32,-11.117336 h 9.68 l -0.234666,3.637333 h -6.629334 l -0.498666,4.077333 q 0.704,-0.088 1.525333,-0.088 z"
           style="font-style:normal;font-variant:normal;font-weight:bold;font-stretch:normal;font-size:29.33333397px;font-family:Cabin;-inkscape-font-specification:'Cabin Bold';font-variant-ligatures:normal;font-variant-caps:normal;font-variant-numeric:normal;font-feature-settings:normal;text-align:center;writing-mode:lr-tb;text-anchor:middle;fill:#6c71c4;fill-opacity:1;stroke:none;stroke-width:5.30000019;stroke-miterlimit:4;stroke-dasharray:none;stroke-opacity:1"
           id="path1982" />
      </g>
      <g
         aria-label="6"
         style="font-style:normal;font-variant:normal;font-weight:bold;font-stretch:normal;font-size:29.33333397px;font-family:Cabin;-inkscape-font-specification:'Cabin Bold';font-variant-ligatures:normal;font-variant-caps:normal;font-variant-numeric:normal;font-feature-settings:normal;text-align:center;writing-mode:lr-tb;text-anchor:middle;fill:#6c71c4;fill-opacity:1;stroke:none;stroke-width:5.30000019;stroke-miterlimit:4;stroke-dasharray:none;stroke-opacity:1"
         id="text4743">
        <path
           d="m -102.93305,47.650666 q 1.70133,0 3.08,0.792 1.378667,0.792 2.141334,2.2 0.792,1.408 0.792,3.197334 0,1.936 -0.821334,3.432 -0.821333,1.496 -2.34667,2.317333 -1.52533,0.821334 -3.57866,0.821334 -2.112,0 -3.72534,-0.938667 -1.61333,-0.968 -2.49333,-2.698667 -0.88,-1.730666 -0.88,-4.018666 0,-3.109334 1.408,-5.837334 1.408,-2.728 3.54933,-4.722667 2.17067,-1.994666 4.42934,-3.138666 l 2.610664,2.053333 q -2.141334,1.056 -4.458664,3.050667 -2.31734,1.965333 -3.40267,4.488 1.52533,-0.997334 3.696,-0.997334 z m -0.67467,9.650667 q 1.408,0 2.34667,-0.938666 0.93867,-0.968 0.93867,-2.376 0,-1.378667 -0.93867,-2.288001 -0.93867,-0.938666 -2.34667,-0.938666 -1.43733,0 -2.376,0.938666 -0.90933,0.909334 -0.90933,2.288001 0,1.408 0.93867,2.376 0.93866,0.938666 2.34666,0.938666 z"
           style="font-style:normal;font-variant:normal;font-weight:bold;font-stretch:normal;font-size:29.33333397px;font-family:Cabin;-inkscape-font-specification:'Cabin Bold';font-variant-ligatures:normal;font-variant-caps:normal;font-variant-numeric:normal;font-feature-settings:normal;text-align:center;writing-mode:lr-tb;text-anchor:middle;fill:#6c71c4;fill-opacity:1;stroke:none;stroke-width:5.30000019;stroke-miterlimit:4;stroke-dasharray:none;stroke-opacity:1"
           id="path1979" />
      </g>
      <g
         aria-label="7"
         style="font-style:normal;font-variant:normal;font-weight:bold;font-stretch:normal;font-size:29.33333397px;font-family:Cabin;-inkscape-font-specification:'Cabin Bold';font-variant-ligatures:normal;font-variant-caps:normal;font-variant-numeric:normal;font-feature-settings:normal;text-align:center;writing-mode:lr-tb;text-anchor:middle;fill:#6c71c4;fill-opacity:1;stroke:none;stroke-width:5.30000019;stroke-miterlimit:4;stroke-dasharray:none;stroke-opacity:1"
         id="text4745">
        <path
           d="m -110.89883,-41.371116 -8.56533,20.533334 h -3.93067 l 7.09867,-17.013334 h -8.096 v -3.52 z"
           style="font-style:normal;font-variant:normal;font-weight:bold;font-stretch:normal;font-size:29.33333397px;font-family:Cabin;-inkscape-font-specification:'Cabin Bold';font-variant-ligatures:normal;font-variant-caps:normal;font-variant-numeric:normal;font-feature-settings:normal;text-align:center;writing-mode:lr-tb;text-anchor:middle;fill:#6c71c4;fill-opacity:1;stroke:none;stroke-width:5.30000019;stroke-miterlimit:4;stroke-dasharray:none;stroke-opacity:1"
           id="path1976" />
      </g>
      <g
         aria-label="8"
         style="font-style:normal;font-variant:normal;font-weight:bold;font-stretch:normal;font-size:29.33333397px;font-family:Cabin;-inkscape-font-specification:'Cabin Bold';font-variant-ligatures:normal;font-variant-caps:normal;font-variant-numeric:normal;font-feature-settings:normal;text-align:center;writing-mode:lr-tb;text-anchor:middle;fill:#6c71c4;fill-opacity:1;stroke:none;stroke-width:5.30000019;stroke-miterlimit:4;stroke-dasharray:none;stroke-opacity:1"
         id="text4747">
        <path
           d="m -73.020743,-103.10133 q 1.466667,0.792 2.288,2.17067 0.821333,1.378662 0.821333,3.109329 0,1.848 -0.88,3.285333 -0.88,1.437334 -2.522666,2.229334 -1.642667,0.792 -3.813334,0.792 -2.2,0 -3.842666,-0.792 -1.613334,-0.792 -2.493334,-2.229334 -0.88,-1.437333 -0.88,-3.285333 0,-1.76 0.821334,-3.109329 0.850666,-1.37867 2.346666,-2.17067 -1.056,-0.73333 -1.642666,-1.81867 -0.586667,-1.11466 -0.586667,-2.40533 0,-1.43733 0.674667,-2.69867 0.674666,-1.26133 2.082666,-2.05333 1.408,-0.792 3.52,-0.792 2.112,0 3.490667,0.792 1.378667,0.792 2.024,2.05333 0.645333,1.26134 0.645333,2.69867 0,1.32 -0.528,2.40533 -0.528,1.08534 -1.525333,1.81867 z m -4.106667,-6.83467 q -1.408,0 -2.2,0.73334 -0.792,0.704 -0.792,1.90666 0,1.144 0.792,1.90667 0.821334,0.76267 2.2,0.76267 1.378667,0 2.112,-0.76267 0.762667,-0.76267 0.762667,-1.90667 0,-1.20266 -0.762667,-1.90666 -0.733333,-0.73334 -2.112,-0.73334 z m 0,15.194669 q 1.76,0 2.757334,-0.88 0.997333,-0.909334 0.997333,-2.434667 0,-1.437333 -1.026667,-2.346662 -0.997333,-0.90934 -2.728,-0.90934 -1.730666,0 -2.757333,0.90934 -0.997333,0.909329 -0.997333,2.346662 0,1.525333 0.997333,2.434667 0.997333,0.88 2.757333,0.88 z"
           style="font-style:normal;font-variant:normal;font-weight:bold;font-stretch:normal;font-size:29.33333397px;font-family:Cabin;-inkscape-font-specification:'Cabin Bold';font-variant-ligatures:normal;font-variant-caps:normal;font-variant-numeric:normal;font-feature-settings:normal;text-align:center;writing-mode:lr-tb;text-anchor:middle;fill:#6c71c4;fill-opacity:1;stroke:none;stroke-width:5.30000019;stroke-miterlimit:4;stroke-dasharray:none;stroke-opacity:1"
           id="path1973" />
      </g>
      <g
         aria-label="9"
         style="font-style:normal;font-variant:normal;font-weight:bold;font-stretch:normal;font-size:29.33333397px;font-family:Cabin;-inkscape-font-specification:'Cabin Bold';font-variant-ligatures:normal;font-variant-caps:normal;font-variant-numeric:normal;font-feature-settings:normal;text-align:center;writing-mode:lr-tb;text-anchor:middle;fill:#6c71c4;fill-opacity:1;stroke:none;stroke-width:5.30000019;stroke-miterlimit:4;stroke-dasharray:none;stroke-opacity:1"
         id="text4749">
        <path
           d="m -0.09533334,-140.944 q 2.11200004,0 3.72533344,0.968 1.6133333,0.93867 2.4933334,2.66933 0.88,1.73067 0.88,4.01867 0,2.992 -1.3786667,5.66133 -1.3493334,2.64 -3.4320001,4.576 Q 0.11,-121.11467 -2.09,-120 l -2.6106668,-2.05333 q 2.0240001,-0.99734 4.22400012,-2.87467 2.22933338,-1.87733 3.31466678,-4.224 -1.4666667,0.968 -3.66666678,0.968 -1.70133342,0 -3.08000012,-0.792 -1.3786666,-0.792 -2.1706667,-2.2 -0.7626666,-1.408 -0.7626666,-3.19733 0,-1.936 0.8213333,-3.432 0.8213334,-1.496 2.3466667,-2.31734 1.5253334,-0.82133 3.57866676,-0.82133 z M -0.154,-131.41067 q 1.408,0 2.3173334,-0.88 0.9093333,-0.88 0.9093333,-2.22933 0,-1.34933 -0.9093333,-2.25867 Q 1.254,-137.71733 -0.154,-137.71733 q -1.3786667,0 -2.3173334,0.93866 -0.9093333,0.90934 -0.9093333,2.25867 0,1.34933 0.9093333,2.22933 0.9386667,0.88 2.3173334,0.88 z"
           style="font-style:normal;font-variant:normal;font-weight:bold;font-stretch:normal;font-size:29.33333397px;font-family:Cabin;-inkscape-font-specification:'Cabin Bold';font-variant-ligatures:normal;font-variant-caps:normal;font-variant-numeric:normal;font-feature-settings:normal;text-align:center;writing-mode:lr-tb;text-anchor:middle;fill:#6c71c4;fill-opacity:1;stroke:none;stroke-width:5.30000019;stroke-miterlimit:4;stroke-dasharray:none;stroke-opacity:1"
           id="path1970" />
      </g>
    </g>
    <circle
       cx="122.38205"
       cy="-226.29451"
       r="100"
       id="circle4753"
       style="fill:none;stroke:#586e75;stroke-width:5.80000019;stroke-miterlimit:4;stroke-dasharray:none;stroke-opacity:1" />
    <path
       style="opacity:1;fill:none;stroke:#268bd2;stroke-width:7.80000019;stroke-linecap:round;stroke-linejoin:round;stroke-miterlimit:4;stroke-dasharray:none;stroke-opacity:1"
       d="M 259.06843,-309.72647 124.60097,-219.23822 -2.7658856,-302.18209"
       id="path4761"
       inkscape:connector-curvature="0"
       sodipodi:nodetypes="ccc" />
    <path
       style="opacity:1;fill:none;stroke:#268bd2;stroke-width:7.80000019;stroke-linecap:round;stroke-linejoin:round;stroke-miterlimit:4;stroke-dasharray:none;stroke-opacity:1"
       d="M 124.60097,-219.23822 V -91.984756"
       id="path4763"
       inkscape:connector-curvature="0"
       sodipodi:nodetypes="cc" />
    <g
       aria-label="Instinctive/Body
Center"
       style="font-style:normal;font-variant:normal;font-weight:normal;font-stretch:normal;font-size:40px;line-height:0.75;font-family:Cabin;-inkscape-font-specification:Cabin;text-align:center;letter-spacing:0px;word-spacing:0px;text-anchor:middle;fill:#268bd2;fill-opacity:1;stroke:none"
       id="text839">
      <path
         d="m 25.219153,-413.12086 h 3.413333 v 18.66667 h -3.413333 z"
         style="font-style:normal;font-variant:normal;font-weight:bold;font-stretch:normal;font-size:26.66666603px;line-height:0.75;font-family:Cabin;-inkscape-font-specification:'Cabin Bold';fill:#268bd2;fill-opacity:1"
         id="path2075" />
      <path
         d="m 38.672069,-408.00086 q 2.48,0 3.76,1.65333 1.28,1.65334 1.28,4.45334 v 7.44 h -3.306667 v -7.17334 q 0,-1.86666 -0.64,-2.74666 -0.613333,-0.90667 -2,-0.90667 -1.52,0 -2.506666,1.14667 v 9.68 h -3.306667 v -13.33334 h 3.093333 l 0.05333,0.93334 q 1.68,-1.14667 3.573333,-1.14667 z"
         style="font-style:normal;font-variant:normal;font-weight:bold;font-stretch:normal;font-size:26.66666603px;line-height:0.75;font-family:Cabin;-inkscape-font-specification:'Cabin Bold';fill:#268bd2;fill-opacity:1"
         id="path2077" />
      <path
         d="m 50.478319,-394.18753 q -1.28,0 -2.346667,-0.24 -1.04,-0.24 -2.16,-0.74666 l 0.293334,-2.82667 q 1.119999,0.66667 2.079999,1.01333 0.986667,0.32 2.026667,0.32 2.026667,0 2.026667,-1.33333 0,-0.72 -0.533334,-1.09333 -0.533333,-0.4 -1.92,-0.93334 -1.973333,-0.72 -2.906666,-1.62666 -0.933333,-0.93334 -0.933333,-2.50667 0,-1.73333 1.333333,-2.8 1.333333,-1.09333 3.6,-1.09333 2.266666,0 4.133333,1.04 l -0.293333,2.82666 q -1.013334,-0.69333 -1.92,-1.06666 -0.88,-0.37334 -1.866667,-0.37334 -0.853333,0 -1.333333,0.34667 -0.453334,0.34667 -0.453334,0.98667 0,0.50666 0.266667,0.82666 0.293333,0.32 0.8,0.58667 0.506667,0.24 1.68,0.69333 1.946667,0.74667 2.8,1.65334 0.853333,0.88 0.853333,2.37333 0,1.89333 -1.36,2.93333 -1.36,1.04 -3.866666,1.04 z"
         style="font-style:normal;font-variant:normal;font-weight:bold;font-stretch:normal;font-size:26.66666603px;line-height:0.75;font-family:Cabin;-inkscape-font-specification:'Cabin Bold';fill:#268bd2;fill-opacity:1"
         id="path2079" />
      <path
         d="m 62.340403,-394.18753 q -1.76,0 -2.666667,-1.01333 -0.906667,-1.04 -0.906667,-2.48 v -7.38667 h -1.893333 l 0.293333,-2.72 h 1.6 v -2.93333 l 3.306667,-0.34667 v 3.28 h 2.933333 v 2.72 h -2.933333 v 6.02667 q 0,1.06667 0.106667,1.49333 0.133333,0.4 0.506666,0.53334 0.4,0.10666 1.413334,0.10666 h 0.906666 l -0.293333,2.72 z"
         style="font-style:normal;font-variant:normal;font-weight:bold;font-stretch:normal;font-size:26.66666603px;line-height:0.75;font-family:Cabin;-inkscape-font-specification:'Cabin Bold';fill:#268bd2;fill-opacity:1"
         id="path2081" />
      <path
         d="m 67.1604,-413.12086 h 3.306667 v 3.30667 H 67.1604 Z m 0,5.33333 h 3.306667 v 13.33334 H 67.1604 Z"
         style="font-style:normal;font-variant:normal;font-weight:bold;font-stretch:normal;font-size:26.66666603px;line-height:0.75;font-family:Cabin;-inkscape-font-specification:'Cabin Bold';fill:#268bd2;fill-opacity:1"
         id="path2083" />
      <path
         d="m 80.28665,-408.00086 q 2.48,0 3.76,1.65333 1.28,1.65334 1.28,4.45334 v 7.44 h -3.306667 v -7.17334 q 0,-1.86666 -0.64,-2.74666 -0.613333,-0.90667 -2,-0.90667 -1.52,0 -2.506666,1.14667 v 9.68 H 73.56665 v -13.33334 h 3.093334 l 0.05333,0.93334 q 1.68,-1.14667 3.573333,-1.14667 z"
         style="font-style:normal;font-variant:normal;font-weight:bold;font-stretch:normal;font-size:26.66666603px;line-height:0.75;font-family:Cabin;-inkscape-font-specification:'Cabin Bold';fill:#268bd2;fill-opacity:1"
         id="path2085" />
      <path
         d="m 94.492903,-394.18753 q -2.213334,0 -3.813334,-0.90666 -1.573333,-0.93334 -2.373333,-2.50667 -0.8,-1.57333 -0.8,-3.49333 0,-1.94667 0.8,-3.52 0.8,-1.6 2.4,-2.50667 1.6,-0.93333 3.893333,-0.93333 2.053334,0 3.573334,0.85333 l -0.266667,2.66667 q -1.44,-0.74667 -2.986667,-0.74667 -1.893333,0 -2.96,1.14667 -1.066666,1.14666 -1.066666,3.04 0,1.81333 1.093333,3.01333 1.093333,1.17333 2.906667,1.17333 1.52,0 3.04,-0.88 l 0.293333,2.8 q -0.72,0.37334 -1.706667,0.58667 -0.96,0.21333 -2.026666,0.21333 z"
         style="font-style:normal;font-variant:normal;font-weight:bold;font-stretch:normal;font-size:26.66666603px;line-height:0.75;font-family:Cabin;-inkscape-font-specification:'Cabin Bold';fill:#268bd2;fill-opacity:1"
         id="path2087" />
      <path
         d="m 104.78832,-394.18753 q -1.76,0 -2.66667,-1.01333 -0.90667,-1.04 -0.90667,-2.48 v -7.38667 h -1.89333 l 0.293334,-2.72 h 1.599996 v -2.93333 l 3.30667,-0.34667 v 3.28 h 2.93333 v 2.72 h -2.93333 v 6.02667 q 0,1.06667 0.10667,1.49333 0.13333,0.4 0.50666,0.53334 0.4,0.10666 1.41334,0.10666 h 0.90666 l -0.29333,2.72 z"
         style="font-style:normal;font-variant:normal;font-weight:bold;font-stretch:normal;font-size:26.66666603px;line-height:0.75;font-family:Cabin;-inkscape-font-specification:'Cabin Bold';fill:#268bd2;fill-opacity:1"
         id="path2089" />
      <path
         d="m 109.60831,-413.12086 h 3.30667 v 3.30667 h -3.30667 z m 0,5.33333 h 3.30667 v 13.33334 h -3.30667 z"
         style="font-style:normal;font-variant:normal;font-weight:bold;font-stretch:normal;font-size:26.66666603px;line-height:0.75;font-family:Cabin;-inkscape-font-specification:'Cabin Bold';fill:#268bd2;fill-opacity:1"
         id="path2091" />
      <path
         d="m 114.5479,-407.78753 h 3.25333 l 3.28,9.22667 3.28,-9.22667 h 3.25333 l -5.12,13.33334 h -2.82666 z"
         style="font-style:normal;font-variant:normal;font-weight:bold;font-stretch:normal;font-size:26.66666603px;line-height:0.75;font-family:Cabin;-inkscape-font-specification:'Cabin Bold';fill:#268bd2;fill-opacity:1"
         id="path2093" />
      <path
         d="m 135.40998,-394.18753 q -2.32,0 -3.97333,-0.93333 -1.62667,-0.96 -2.45334,-2.53333 -0.8,-1.6 -0.8,-3.54667 0,-1.86667 0.77334,-3.41333 0.77333,-1.54667 2.24,-2.45334 1.46666,-0.93333 3.49333,-0.93333 1.86667,0 3.14667,0.77333 1.30666,0.77334 1.94666,2.08 0.66667,1.30667 0.66667,2.93334 0,0.8 -0.21333,1.81333 h -8.61334 q 0.26667,1.76 1.38667,2.64 1.12,0.85333 2.69333,0.85333 2.16,0 4,-1.09333 l 0.16,2.8 q -0.85333,0.45333 -2,0.74667 -1.12,0.26666 -2.45333,0.26666 z m 1.68,-8.45333 q 0,-1.04 -0.58667,-1.84 -0.58666,-0.8 -1.81333,-0.8 -1.22667,0 -1.97333,0.72 -0.74667,0.72 -1.01334,1.92 z"
         style="font-style:normal;font-variant:normal;font-weight:bold;font-stretch:normal;font-size:26.66666603px;line-height:0.75;font-family:Cabin;-inkscape-font-specification:'Cabin Bold';fill:#268bd2;fill-opacity:1"
         id="path2095" />
      <path
         d="m 148.11998,-413.12086 h 3.33333 l -7.14666,20.93333 h -3.33334 z"
         style="font-style:normal;font-variant:normal;font-weight:bold;font-stretch:normal;font-size:26.66666603px;line-height:0.75;font-family:Cabin;-inkscape-font-specification:'Cabin Bold';fill:#268bd2;fill-opacity:1"
         id="path2097" />
      <path
         d="m 163.14332,-404.66753 q 3.54666,1.14667 3.54666,4.90667 0,2.50667 -1.62666,3.92 -1.62667,1.38667 -4.45334,1.38667 h -7.78666 v -18.66667 h 7.04 q 5.33333,0 5.33333,4.50667 0,2.77333 -2.05333,3.94666 z m -6.90667,-1.12 h 3.12 q 1.25333,0 1.86667,-0.50666 0.61333,-0.53334 0.61333,-1.62667 0,-1.14667 -0.61333,-1.65333 -0.61334,-0.50667 -1.86667,-0.50667 h -3.12 z m 3.86667,8.29334 q 1.49333,0 2.26666,-0.58667 0.8,-0.61333 0.8,-2.05333 0,-1.41334 -0.82666,-2 -0.8,-0.61334 -2.24,-0.61334 h -3.86667 v 5.25334 z"
         style="font-style:normal;font-variant:normal;font-weight:bold;font-stretch:normal;font-size:26.66666603px;line-height:0.75;font-family:Cabin;-inkscape-font-specification:'Cabin Bold';fill:#268bd2;fill-opacity:1"
         id="path2099" />
      <path
         d="m 175.08873,-394.18753 q -2.10667,0 -3.65334,-0.93333 -1.54666,-0.93333 -2.37333,-2.50667 -0.82667,-1.57333 -0.82667,-3.46666 0,-1.89334 0.82667,-3.49334 0.82667,-1.6 2.37333,-2.53333 1.54667,-0.93333 3.65334,-0.93333 2.10666,0 3.65333,0.93333 1.54667,0.93333 2.37333,2.53333 0.82667,1.6 0.82667,3.49334 0,1.89333 -0.82667,3.46666 -0.82666,1.57334 -2.37333,2.50667 -1.54667,0.93333 -3.65333,0.93333 z m 0,-2.72 q 1.62666,0 2.53333,-1.14666 0.93333,-1.14667 0.93333,-3.04 0,-1.92 -0.93333,-3.06667 -0.90667,-1.17333 -2.53333,-1.17333 -1.62667,0 -2.56,1.17333 -0.90667,1.14667 -0.90667,3.06667 0,1.89333 0.90667,3.04 0.93333,1.14666 2.56,1.14666 z"
         style="font-style:normal;font-variant:normal;font-weight:bold;font-stretch:normal;font-size:26.66666603px;line-height:0.75;font-family:Cabin;-inkscape-font-specification:'Cabin Bold';fill:#268bd2;fill-opacity:1"
         id="path2101" />
      <path
         d="m 196.40374,-414.45419 v 20 h -3.12 l -0.0533,-0.85334 q -0.77333,0.56 -1.62666,0.85334 -0.82667,0.26666 -1.97334,0.26666 -1.94666,0 -3.36,-0.93333 -1.38666,-0.93333 -2.10666,-2.50667 -0.72,-1.57333 -0.72,-3.46666 0,-1.89334 0.72,-3.46667 0.72,-1.57333 2.10666,-2.50667 1.41334,-0.93333 3.36,-0.93333 1.94667,0 3.46667,1.06667 v -7.52 z m -6.29334,17.54666 q 1.57334,0 2.34667,-1.12 0.8,-1.12 0.8,-3.06666 0,-1.94667 -0.8,-3.06667 -0.77333,-1.12 -2.34667,-1.12 -1.54666,0 -2.42666,1.14667 -0.85334,1.14666 -0.85334,3.04 0,1.89333 0.85334,3.04 0.88,1.14666 2.42666,1.14666 z"
         style="font-style:normal;font-variant:normal;font-weight:bold;font-stretch:normal;font-size:26.66666603px;line-height:0.75;font-family:Cabin;-inkscape-font-specification:'Cabin Bold';fill:#268bd2;fill-opacity:1"
         id="path2103" />
      <path
         d="m 203.47873,-395.33419 -5.54667,-12.45334 h 3.68 l 3.41334,8.58667 3.46666,-8.58667 h 3.68 l -8.34666,19.78667 h -3.30667 z"
         style="font-style:normal;font-variant:normal;font-weight:bold;font-stretch:normal;font-size:26.66666603px;line-height:0.75;font-family:Cabin;-inkscape-font-specification:'Cabin Bold';fill:#268bd2;fill-opacity:1"
         id="path2105" />
      <path
         d="m 90.182901,-364.08086 q -2.826666,0 -5.013333,-1.2 -2.16,-1.2 -3.36,-3.38667 -1.2,-2.21333 -1.2,-5.12 0,-2.88 1.226667,-5.06666 1.253333,-2.21334 3.44,-3.41334 2.213333,-1.22666 5.013333,-1.22666 2.693333,0 4.826666,1.09333 l -0.373333,3.25333 q -1.146666,-0.50666 -2.213333,-0.77333 -1.04,-0.29333 -2.266667,-0.29333 -2.853333,0 -4.4,1.76 -1.52,1.76 -1.52,4.66666 0,2.90667 1.493334,4.66667 1.52,1.76 4.346666,1.76 1.253334,0 2.293334,-0.26667 1.066666,-0.26666 2.266666,-0.8 l 0.373333,3.25334 q -2.319999,1.09333 -4.933333,1.09333 z"
         style="font-style:normal;font-variant:normal;font-weight:bold;font-stretch:normal;font-size:26.66666603px;line-height:0.75;font-family:Cabin;-inkscape-font-specification:'Cabin Bold';fill:#268bd2;fill-opacity:1"
         id="path2107" />
      <path
         d="m 103.63915,-364.18753 q -2.32,0 -3.973332,-0.93333 -1.626667,-0.96 -2.453334,-2.53333 -0.8,-1.6 -0.8,-3.54667 0,-1.86667 0.773334,-3.41333 0.773333,-1.54667 2.24,-2.45334 1.466662,-0.93333 3.493332,-0.93333 1.86667,0 3.14667,0.77333 1.30666,0.77334 1.94666,2.08 0.66667,1.30667 0.66667,2.93334 0,0.8 -0.21333,1.81333 h -8.613336 q 0.266666,1.76 1.386666,2.64 1.12,0.85333 2.69333,0.85333 2.16,0 4,-1.09333 l 0.16,2.8 q -0.85333,0.45333 -2,0.74667 -1.12,0.26666 -2.45333,0.26666 z m 1.68,-8.45333 q 0,-1.04 -0.58667,-1.84 -0.58666,-0.8 -1.81333,-0.8 -1.22667,0 -1.97333,0.72 -0.74667,0.72 -1.013336,1.92 z"
         style="font-style:normal;font-variant:normal;font-weight:bold;font-stretch:normal;font-size:26.66666603px;line-height:0.75;font-family:Cabin;-inkscape-font-specification:'Cabin Bold';fill:#268bd2;fill-opacity:1"
         id="path2109" />
      <path
         d="m 117.68248,-378.00086 q 2.48,0 3.76,1.65333 1.28,1.65334 1.28,4.45334 v 7.44 h -3.30666 v -7.17334 q 0,-1.86666 -0.64,-2.74666 -0.61334,-0.90667 -2,-0.90667 -1.52,0 -2.50667,1.14667 v 9.68 h -3.30667 v -13.33334 h 3.09334 l 0.0533,0.93334 q 1.68,-1.14667 3.57333,-1.14667 z"
         style="font-style:normal;font-variant:normal;font-weight:bold;font-stretch:normal;font-size:26.66666603px;line-height:0.75;font-family:Cabin;-inkscape-font-specification:'Cabin Bold';fill:#268bd2;fill-opacity:1"
         id="path2111" />
      <path
         d="m 129.89248,-364.18753 q -1.76,0 -2.66666,-1.01333 -0.90667,-1.04 -0.90667,-2.48 v -7.38667 h -1.89333 l 0.29333,-2.72 h 1.6 v -2.93333 l 3.30667,-0.34667 v 3.28 h 2.93333 v 2.72 h -2.93333 v 6.02667 q 0,1.06667 0.10666,1.49333 0.13334,0.4 0.50667,0.53334 0.4,0.10666 1.41333,0.10666 h 0.90667 l -0.29333,2.72 z"
         style="font-style:normal;font-variant:normal;font-weight:bold;font-stretch:normal;font-size:26.66666603px;line-height:0.75;font-family:Cabin;-inkscape-font-specification:'Cabin Bold';fill:#268bd2;fill-opacity:1"
         id="path2113" />
      <path
         d="m 141.13915,-364.18753 q -2.32,0 -3.97333,-0.93333 -1.62667,-0.96 -2.45334,-2.53333 -0.8,-1.6 -0.8,-3.54667 0,-1.86667 0.77334,-3.41333 0.77333,-1.54667 2.24,-2.45334 1.46666,-0.93333 3.49333,-0.93333 1.86667,0 3.14667,0.77333 1.30666,0.77334 1.94666,2.08 0.66667,1.30667 0.66667,2.93334 0,0.8 -0.21333,1.81333 h -8.61334 q 0.26667,1.76 1.38667,2.64 1.12,0.85333 2.69333,0.85333 2.16,0 4,-1.09333 l 0.16,2.8 q -0.85333,0.45333 -2,0.74667 -1.12,0.26666 -2.45333,0.26666 z m 1.68,-8.45333 q 0,-1.04 -0.58667,-1.84 -0.58666,-0.8 -1.81333,-0.8 -1.22667,0 -1.97333,0.72 -0.74667,0.72 -1.01334,1.92 z"
         style="font-style:normal;font-variant:normal;font-weight:bold;font-stretch:normal;font-size:26.66666603px;line-height:0.75;font-family:Cabin;-inkscape-font-specification:'Cabin Bold';fill:#268bd2;fill-opacity:1"
         id="path2115" />
      <path
         d="m 148.46248,-377.78753 h 3.09333 l 0.08,1.41334 q 0.58667,-0.66667 1.49334,-1.17334 0.93333,-0.50666 1.94666,-0.50666 0.32,0 0.58667,0.0533 l -0.24,3.25333 q -0.50667,-0.13333 -1.14667,-0.13333 -0.82666,0 -1.52,0.4 -0.69333,0.37333 -0.98666,0.93333 v 9.09334 h -3.30667 z"
         style="font-style:normal;font-variant:normal;font-weight:bold;font-stretch:normal;font-size:26.66666603px;line-height:0.75;font-family:Cabin;-inkscape-font-specification:'Cabin Bold';fill:#268bd2;fill-opacity:1"
         id="path2117" />
    </g>
    <g
       aria-label="Feeling/Heart
Center"
       style="font-style:normal;font-variant:normal;font-weight:normal;font-stretch:normal;font-size:40px;line-height:0.75;font-family:Cabin;-inkscape-font-specification:Cabin;text-align:center;letter-spacing:0px;word-spacing:0px;text-anchor:middle;fill:#268bd2;fill-opacity:1;stroke:none"
       id="text839-0">
      <path
         d="m 233.17301,-203.35336 h 11.49334 v 3.30667 h -8.08 v 3.97333 h 6.24 v 3.30667 h -6.24 v 8.08 h -3.41334 z"
         style="font-style:normal;font-variant:normal;font-weight:bold;font-stretch:normal;font-size:26.66666603px;line-height:0.75;font-family:Cabin;-inkscape-font-specification:'Cabin Bold';fill:#268bd2;fill-opacity:1"
         id="path1997" />
      <path
         d="m 252.16593,-184.42002 q -2.32,0 -3.97333,-0.93334 -1.62667,-0.96 -2.45334,-2.53333 -0.8,-1.6 -0.8,-3.54667 0,-1.86666 0.77334,-3.41333 0.77333,-1.54667 2.24,-2.45333 1.46666,-0.93334 3.49333,-0.93334 1.86667,0 3.14667,0.77334 1.30666,0.77333 1.94666,2.08 0.66667,1.30666 0.66667,2.93333 0,0.8 -0.21333,1.81333 h -8.61334 q 0.26667,1.76 1.38667,2.64 1.12,0.85334 2.69333,0.85334 2.16,0 4,-1.09334 l 0.16,2.8 q -0.85333,0.45334 -2,0.74667 -1.12,0.26667 -2.45333,0.26667 z m 1.68,-8.45334 q 0,-1.04 -0.58667,-1.84 -0.58666,-0.8 -1.81333,-0.8 -1.22667,0 -1.97333,0.72 -0.74667,0.72 -1.01334,1.92 z"
         style="font-style:normal;font-variant:normal;font-weight:bold;font-stretch:normal;font-size:26.66666603px;line-height:0.75;font-family:Cabin;-inkscape-font-specification:'Cabin Bold';fill:#268bd2;fill-opacity:1"
         id="path1999" />
      <path
         d="m 265.91593,-184.42002 q -2.32,0 -3.97333,-0.93334 -1.62667,-0.96 -2.45334,-2.53333 -0.8,-1.6 -0.8,-3.54667 0,-1.86666 0.77334,-3.41333 0.77333,-1.54667 2.24,-2.45333 1.46666,-0.93334 3.49333,-0.93334 1.86667,0 3.14667,0.77334 1.30666,0.77333 1.94666,2.08 0.66667,1.30666 0.66667,2.93333 0,0.8 -0.21333,1.81333 h -8.61334 q 0.26667,1.76 1.38667,2.64 1.12,0.85334 2.69333,0.85334 2.16,0 4,-1.09334 l 0.16,2.8 q -0.85333,0.45334 -2,0.74667 -1.12,0.26667 -2.45333,0.26667 z m 1.68,-8.45334 q 0,-1.04 -0.58667,-1.84 -0.58666,-0.8 -1.81333,-0.8 -1.22667,0 -1.97333,0.72 -0.74667,0.72 -1.01334,1.92 z"
         style="font-style:normal;font-variant:normal;font-weight:bold;font-stretch:normal;font-size:26.66666603px;line-height:0.75;font-family:Cabin;-inkscape-font-specification:'Cabin Bold';fill:#268bd2;fill-opacity:1"
         id="path2001" />
      <path
         d="m 276.6526,-184.42002 q -1.70667,0 -2.56,-0.96 -0.85334,-0.98667 -0.85334,-2.53334 v -16.77333 h 3.30667 v 15.41333 q 0,1.06667 0.10667,1.52 0.13333,0.42667 0.42666,0.53334 0.32,0.08 1.06667,0.08 l -0.29333,2.72 z"
         style="font-style:normal;font-variant:normal;font-weight:bold;font-stretch:normal;font-size:26.66666603px;line-height:0.75;font-family:Cabin;-inkscape-font-specification:'Cabin Bold';fill:#268bd2;fill-opacity:1"
         id="path2003" />
      <path
         d="m 280.27051,-203.35336 h 3.30667 v 3.30667 h -3.30667 z m 0,5.33334 h 3.30667 v 13.33333 h -3.30667 z"
         style="font-style:normal;font-variant:normal;font-weight:bold;font-stretch:normal;font-size:26.66666603px;line-height:0.75;font-family:Cabin;-inkscape-font-specification:'Cabin Bold';fill:#268bd2;fill-opacity:1"
         id="path2005" />
      <path
         d="m 293.39676,-198.23336 q 2.48,0 3.76,1.65334 1.28,1.65333 1.28,4.45333 v 7.44 h -3.30666 v -7.17333 q 0,-1.86667 -0.64,-2.74667 -0.61334,-0.90667 -2,-0.90667 -1.52,0 -2.50667,1.14667 v 9.68 h -3.30667 v -13.33333 h 3.09334 l 0.0533,0.93333 q 1.68,-1.14667 3.57333,-1.14667 z"
         style="font-style:normal;font-variant:normal;font-weight:bold;font-stretch:normal;font-size:26.66666603px;line-height:0.75;font-family:Cabin;-inkscape-font-specification:'Cabin Bold';fill:#268bd2;fill-opacity:1"
         id="path2007" />
      <path
         d="m 306.69635,-177.96669 q -2.82667,0 -4.50667,-1.04 -1.68,-1.01333 -1.68,-2.77333 0,-1.92 2.16,-3.14667 -1.17333,-0.72 -1.17333,-1.89333 0,-0.61334 0.34666,-1.09334 0.37334,-0.48 0.98667,-0.77333 -1.01333,-0.72 -1.54667,-1.84 -0.50666,-1.12 -0.50666,-2.45333 0,-1.46667 0.64,-2.66667 0.64,-1.22667 1.86666,-1.92 1.22667,-0.72 2.90667,-0.72 1.76,0 3.04,0.85333 0.45333,-0.24 1.2,-0.4 0.77333,-0.18666 1.65333,-0.18666 h 0.85334 l -0.21334,2.08 h -1.2 q -0.45333,0 -0.74666,0.0267 0.8,1.22667 0.8,2.93334 0,1.46666 -0.64,2.69333 -0.61334,1.2 -1.84,1.92 -1.22667,0.69333 -2.90667,0.69333 -0.61333,0 -1.41333,-0.18666 -0.29334,0.13333 -0.29334,0.42666 0,0.34667 0.4,0.56 0.42667,0.18667 1.41334,0.32 l 2.29333,0.29334 q 4.58667,0.61333 4.58667,3.86666 0,2.02667 -1.73334,3.22667 -1.70666,1.2 -4.74666,1.2 z m -0.50667,-12.16 q 1.14667,0 1.76,-0.74667 0.64,-0.77333 0.64,-2.10666 0,-1.33334 -0.64,-2.08 -0.61333,-0.77334 -1.76,-0.77334 -1.17333,0 -1.81333,0.77334 -0.61334,0.74666 -0.61334,2.08 0,1.33333 0.61334,2.10666 0.64,0.74667 1.81333,0.74667 z m 0.64,9.65333 q 3.41333,0 3.41333,-1.68 0,-0.74666 -0.58666,-1.12 -0.58667,-0.34666 -1.94667,-0.56 l -2.93333,-0.42666 q -1.52,0.61333 -1.52,1.86666 0,0.96 0.93333,1.44 0.93333,0.48 2.64,0.48 z"
         style="font-style:normal;font-variant:normal;font-weight:bold;font-stretch:normal;font-size:26.66666603px;line-height:0.75;font-family:Cabin;-inkscape-font-specification:'Cabin Bold';fill:#268bd2;fill-opacity:1"
         id="path2009" />
      <path
         d="m 320.50093,-203.35336 h 3.33333 l -7.14666,20.93334 h -3.33334 z"
         style="font-style:normal;font-variant:normal;font-weight:bold;font-stretch:normal;font-size:26.66666603px;line-height:0.75;font-family:Cabin;-inkscape-font-specification:'Cabin Bold';fill:#268bd2;fill-opacity:1"
         id="path2011" />
      <path
         d="m 325.20426,-203.35336 h 3.41334 v 7.38667 h 8.53333 v -7.38667 h 3.41333 v 18.66667 h -3.41333 v -8.08 h -8.53333 v 8.08 h -3.41334 z"
         style="font-style:normal;font-variant:normal;font-weight:bold;font-stretch:normal;font-size:26.66666603px;line-height:0.75;font-family:Cabin;-inkscape-font-specification:'Cabin Bold';fill:#268bd2;fill-opacity:1"
         id="path2013" />
      <path
         d="m 350.23884,-184.42002 q -2.32,0 -3.97333,-0.93334 -1.62667,-0.96 -2.45333,-2.53333 -0.8,-1.6 -0.8,-3.54667 0,-1.86666 0.77333,-3.41333 0.77333,-1.54667 2.24,-2.45333 1.46667,-0.93334 3.49333,-0.93334 1.86667,0 3.14667,0.77334 1.30667,0.77333 1.94667,2.08 0.66666,1.30666 0.66666,2.93333 0,0.8 -0.21333,1.81333 h -8.61333 q 0.26666,1.76 1.38666,2.64 1.12,0.85334 2.69334,0.85334 2.16,0 4,-1.09334 l 0.16,2.8 q -0.85334,0.45334 -2,0.74667 -1.12,0.26667 -2.45334,0.26667 z m 1.68,-8.45334 q 0,-1.04 -0.58666,-1.84 -0.58667,-0.8 -1.81334,-0.8 -1.22666,0 -1.97333,0.72 -0.74667,0.72 -1.01333,1.92 z"
         style="font-style:normal;font-variant:normal;font-weight:bold;font-stretch:normal;font-size:26.66666603px;line-height:0.75;font-family:Cabin;-inkscape-font-specification:'Cabin Bold';fill:#268bd2;fill-opacity:1"
         id="path2015" />
      <path
         d="m 360.44218,-184.42002 q -1.65334,0 -2.77334,-1.06667 -1.09333,-1.09333 -1.09333,-2.93333 0,-1.73334 1.25333,-2.77334 1.25334,-1.06666 2.96,-1.49333 1.70667,-0.45333 3.28,-0.50667 -0.0533,-1.17333 -0.61333,-1.68 -0.53333,-0.50666 -1.78667,-0.50666 -0.88,0 -1.73333,0.24 -0.82667,0.24 -1.92,0.77333 l -0.29333,-2.69333 q 2.42666,-1.17334 4.85333,-1.17334 2.34667,0 3.57333,1.28 1.25334,1.28 1.25334,4.08 v 3.6 q 0,1.01334 0.08,1.46667 0.10666,0.42667 0.32,0.56 0.24,0.10667 0.77333,0.10667 h 0.42667 l -0.29334,2.72 h -1.2 q -1.09333,0 -1.84,-0.4 -0.74666,-0.42667 -1.14666,-1.14667 -0.64,0.72 -1.76,1.14667 -1.09334,0.4 -2.32,0.4 z m 1.38666,-2.53334 q 0.50667,0 1.14667,-0.24 0.64,-0.26666 1.12,-0.72 v -3.04 q -1.6,0.08 -2.82667,0.69334 -1.22666,0.61333 -1.22666,1.70666 0,0.82667 0.42666,1.22667 0.42667,0.37333 1.36,0.37333 z"
         style="font-style:normal;font-variant:normal;font-weight:bold;font-stretch:normal;font-size:26.66666603px;line-height:0.75;font-family:Cabin;-inkscape-font-specification:'Cabin Bold';fill:#268bd2;fill-opacity:1"
         id="path2017" />
      <path
         d="m 370.84343,-198.02002 h 3.09333 l 0.08,1.41333 q 0.58667,-0.66667 1.49333,-1.17333 0.93334,-0.50667 1.94667,-0.50667 0.32,0 0.58667,0.0533 l -0.24,3.25334 q -0.50667,-0.13334 -1.14667,-0.13334 -0.82667,0 -1.52,0.4 -0.69333,0.37334 -0.98667,0.93334 v 9.09333 h -3.30666 z"
         style="font-style:normal;font-variant:normal;font-weight:bold;font-stretch:normal;font-size:26.66666603px;line-height:0.75;font-family:Cabin;-inkscape-font-specification:'Cabin Bold';fill:#268bd2;fill-opacity:1"
         id="path2019" />
      <path
         d="m 383.99217,-184.42002 q -1.76,0 -2.66667,-1.01334 -0.90666,-1.04 -0.90666,-2.48 v -7.38666 h -1.89334 l 0.29334,-2.72 h 1.6 v -2.93334 l 3.30666,-0.34666 v 3.28 h 2.93334 v 2.72 h -2.93334 v 6.02666 q 0,1.06667 0.10667,1.49334 0.13333,0.4 0.50667,0.53333 0.4,0.10667 1.41333,0.10667 h 0.90667 l -0.29334,2.72 z"
         style="font-style:normal;font-variant:normal;font-weight:bold;font-stretch:normal;font-size:26.66666603px;line-height:0.75;font-family:Cabin;-inkscape-font-specification:'Cabin Bold';fill:#268bd2;fill-opacity:1"
         id="path2021" />
      <path
         d="m 281.67843,-154.31336 q -2.82667,0 -5.01333,-1.2 -2.16,-1.2 -3.36,-3.38666 -1.2,-2.21334 -1.2,-5.12 0,-2.88 1.22666,-5.06667 1.25334,-2.21333 3.44,-3.41333 2.21334,-1.22667 5.01334,-1.22667 2.69333,0 4.82666,1.09333 l -0.37333,3.25334 q -1.14667,-0.50667 -2.21333,-0.77334 -1.04,-0.29333 -2.26667,-0.29333 -2.85333,0 -4.4,1.76 -1.52,1.76 -1.52,4.66667 0,2.90666 1.49333,4.66666 1.52,1.76 4.34667,1.76 1.25333,0 2.29333,-0.26666 1.06667,-0.26667 2.26667,-0.8 l 0.37333,3.25333 q -2.32,1.09333 -4.93333,1.09333 z"
         style="font-style:normal;font-variant:normal;font-weight:bold;font-stretch:normal;font-size:26.66666603px;line-height:0.75;font-family:Cabin;-inkscape-font-specification:'Cabin Bold';fill:#268bd2;fill-opacity:1"
         id="path2023" />
      <path
         d="m 295.13468,-154.42002 q -2.32,0 -3.97333,-0.93334 -1.62667,-0.96 -2.45334,-2.53333 -0.8,-1.6 -0.8,-3.54667 0,-1.86666 0.77334,-3.41333 0.77333,-1.54667 2.24,-2.45333 1.46666,-0.93334 3.49333,-0.93334 1.86667,0 3.14667,0.77334 1.30666,0.77333 1.94666,2.08 0.66667,1.30666 0.66667,2.93333 0,0.8 -0.21333,1.81333 h -8.61334 q 0.26667,1.76 1.38667,2.64 1.12,0.85334 2.69333,0.85334 2.16,0 4,-1.09334 l 0.16,2.8 q -0.85333,0.45334 -2,0.74667 -1.12,0.26667 -2.45333,0.26667 z m 1.68,-8.45334 q 0,-1.04 -0.58667,-1.84 -0.58666,-0.8 -1.81333,-0.8 -1.22667,0 -1.97333,0.72 -0.74667,0.72 -1.01334,1.92 z"
         style="font-style:normal;font-variant:normal;font-weight:bold;font-stretch:normal;font-size:26.66666603px;line-height:0.75;font-family:Cabin;-inkscape-font-specification:'Cabin Bold';fill:#268bd2;fill-opacity:1"
         id="path2025" />
      <path
         d="m 309.17801,-168.23336 q 2.48,0 3.76,1.65334 1.28,1.65333 1.28,4.45333 v 7.44 h -3.30666 v -7.17333 q 0,-1.86667 -0.64,-2.74667 -0.61334,-0.90667 -2,-0.90667 -1.52,0 -2.50667,1.14667 v 9.68 h -3.30667 v -13.33333 h 3.09334 l 0.0533,0.93333 q 1.68,-1.14667 3.57333,-1.14667 z"
         style="font-style:normal;font-variant:normal;font-weight:bold;font-stretch:normal;font-size:26.66666603px;line-height:0.75;font-family:Cabin;-inkscape-font-specification:'Cabin Bold';fill:#268bd2;fill-opacity:1"
         id="path2027" />
      <path
         d="m 321.38801,-154.42002 q -1.76,0 -2.66667,-1.01334 -0.90666,-1.04 -0.90666,-2.48 v -7.38666 h -1.89334 l 0.29334,-2.72 h 1.6 v -2.93334 l 3.30666,-0.34666 v 3.28 h 2.93334 v 2.72 h -2.93334 v 6.02666 q 0,1.06667 0.10667,1.49334 0.13333,0.4 0.50667,0.53333 0.4,0.10667 1.41333,0.10667 h 0.90667 l -0.29334,2.72 z"
         style="font-style:normal;font-variant:normal;font-weight:bold;font-stretch:normal;font-size:26.66666603px;line-height:0.75;font-family:Cabin;-inkscape-font-specification:'Cabin Bold';fill:#268bd2;fill-opacity:1"
         id="path2029" />
      <path
         d="m 332.63468,-154.42002 q -2.32,0 -3.97333,-0.93334 -1.62667,-0.96 -2.45334,-2.53333 -0.8,-1.6 -0.8,-3.54667 0,-1.86666 0.77334,-3.41333 0.77333,-1.54667 2.24,-2.45333 1.46666,-0.93334 3.49333,-0.93334 1.86667,0 3.14667,0.77334 1.30666,0.77333 1.94666,2.08 0.66667,1.30666 0.66667,2.93333 0,0.8 -0.21333,1.81333 h -8.61334 q 0.26667,1.76 1.38667,2.64 1.12,0.85334 2.69333,0.85334 2.16,0 4,-1.09334 l 0.16,2.8 q -0.85333,0.45334 -2,0.74667 -1.12,0.26667 -2.45333,0.26667 z m 1.68,-8.45334 q 0,-1.04 -0.58667,-1.84 -0.58666,-0.8 -1.81333,-0.8 -1.22667,0 -1.97333,0.72 -0.74667,0.72 -1.01334,1.92 z"
         style="font-style:normal;font-variant:normal;font-weight:bold;font-stretch:normal;font-size:26.66666603px;line-height:0.75;font-family:Cabin;-inkscape-font-specification:'Cabin Bold';fill:#268bd2;fill-opacity:1"
         id="path2031" />
      <path
         d="m 339.95801,-168.02002 h 3.09333 l 0.08,1.41333 q 0.58667,-0.66667 1.49334,-1.17333 0.93333,-0.50667 1.94666,-0.50667 0.32,0 0.58667,0.0533 l -0.24,3.25334 q -0.50667,-0.13334 -1.14667,-0.13334 -0.82666,0 -1.52,0.4 -0.69333,0.37334 -0.98666,0.93334 v 9.09333 h -3.30667 z"
         style="font-style:normal;font-variant:normal;font-weight:bold;font-stretch:normal;font-size:26.66666603px;line-height:0.75;font-family:Cabin;-inkscape-font-specification:'Cabin Bold';fill:#268bd2;fill-opacity:1"
         id="path2033" />
    </g>
    <g
       aria-label="Thinking/Head
Center"
       style="font-style:normal;font-variant:normal;font-weight:normal;font-stretch:normal;font-size:40px;line-height:0.75;font-family:Cabin;-inkscape-font-specification:Cabin;text-align:center;letter-spacing:0px;word-spacing:0px;text-anchor:middle;fill:#268bd2;fill-opacity:1;stroke:none"
       id="text839-0-5">
      <path
         d="m -148.76155,-200.04669 h -5.28 v -3.30667 h 13.97334 v 3.30667 h -5.28 v 15.36 h -3.41334 z"
         style="font-style:normal;font-variant:normal;font-weight:bold;font-stretch:normal;font-size:26.66666603px;line-height:0.75;font-family:Cabin;-inkscape-font-specification:'Cabin Bold';fill:#268bd2;fill-opacity:1"
         id="path2036" />
      <path
         d="m -131.53946,-198.23336 q 2.53333,0 3.76,1.65334 1.25333,1.62666 1.25333,4.48 v 7.41333 h -3.30667 v -7.17333 q 0,-1.89334 -0.61333,-2.77334 -0.61333,-0.88 -1.94667,-0.88 -1.57333,0 -2.58666,1.14667 v 9.68 h -3.30667 v -20 h 3.30667 v 7.52 q 0.8,-0.50667 1.62666,-0.77333 0.82667,-0.29334 1.81334,-0.29334 z"
         style="font-style:normal;font-variant:normal;font-weight:bold;font-stretch:normal;font-size:26.66666603px;line-height:0.75;font-family:Cabin;-inkscape-font-specification:'Cabin Bold';fill:#268bd2;fill-opacity:1"
         id="path2038" />
      <path
         d="m -123.57196,-203.35336 h 3.30666 v 3.30667 h -3.30666 z m 0,5.33334 h 3.30666 v 13.33333 h -3.30666 z"
         style="font-style:normal;font-variant:normal;font-weight:bold;font-stretch:normal;font-size:26.66666603px;line-height:0.75;font-family:Cabin;-inkscape-font-specification:'Cabin Bold';fill:#268bd2;fill-opacity:1"
         id="path2040" />
      <path
         d="m -110.44572,-198.23336 q 2.48,0 3.76,1.65334 1.28,1.65333 1.28,4.45333 v 7.44 h -3.30666 v -7.17333 q 0,-1.86667 -0.64,-2.74667 -0.61334,-0.90667 -2,-0.90667 -1.52,0 -2.50667,1.14667 v 9.68 h -3.30667 v -13.33333 h 3.09334 l 0.0533,0.93333 q 1.68,-1.14667 3.57333,-1.14667 z"
         style="font-style:normal;font-variant:normal;font-weight:bold;font-stretch:normal;font-size:26.66666603px;line-height:0.75;font-family:Cabin;-inkscape-font-specification:'Cabin Bold';fill:#268bd2;fill-opacity:1"
         id="path2042" />
      <path
         d="m -102.4528,-204.68669 h 3.30667 v 12.13333 l 4.133333,-5.46666 h 3.733333 l -4.853333,6.4 4.96,6.93333 h -3.733333 l -4.24,-5.92 v 5.92 h -3.30667 z"
         style="font-style:normal;font-variant:normal;font-weight:bold;font-stretch:normal;font-size:26.66666603px;line-height:0.75;font-family:Cabin;-inkscape-font-specification:'Cabin Bold';fill:#268bd2;fill-opacity:1"
         id="path2044" />
      <path
         d="m -89.509466,-203.35336 h 3.306667 v 3.30667 h -3.306667 z m 0,5.33334 h 3.306667 v 13.33333 h -3.306667 z"
         style="font-style:normal;font-variant:normal;font-weight:bold;font-stretch:normal;font-size:26.66666603px;line-height:0.75;font-family:Cabin;-inkscape-font-specification:'Cabin Bold';fill:#268bd2;fill-opacity:1"
         id="path2046" />
      <path
         d="m -76.383216,-198.23336 q 2.48,0 3.76,1.65334 1.28,1.65333 1.28,4.45333 v 7.44 h -3.306667 v -7.17333 q 0,-1.86667 -0.64,-2.74667 -0.613333,-0.90667 -2,-0.90667 -1.52,0 -2.506666,1.14667 v 9.68 h -3.306667 v -13.33333 h 3.093333 l 0.05333,0.93333 q 1.68,-1.14667 3.573333,-1.14667 z"
         style="font-style:normal;font-variant:normal;font-weight:bold;font-stretch:normal;font-size:26.66666603px;line-height:0.75;font-family:Cabin;-inkscape-font-specification:'Cabin Bold';fill:#268bd2;fill-opacity:1"
         id="path2048" />
      <path
         d="m -63.08363,-177.96669 q -2.826667,0 -4.506667,-1.04 -1.68,-1.01333 -1.68,-2.77333 0,-1.92 2.16,-3.14667 -1.173333,-0.72 -1.173333,-1.89333 0,-0.61334 0.346667,-1.09334 0.373333,-0.48 0.986666,-0.77333 -1.013333,-0.72 -1.546666,-1.84 -0.506667,-1.12 -0.506667,-2.45333 0,-1.46667 0.64,-2.66667 0.64,-1.22667 1.866667,-1.92 1.226666,-0.72 2.906666,-0.72 1.76,0 3.04,0.85333 0.453333,-0.24 1.2,-0.4 0.773333,-0.18666 1.653333,-0.18666 h 0.853334 l -0.213334,2.08 h -1.2 q -0.453333,0 -0.746666,0.0267 0.8,1.22667 0.8,2.93334 0,1.46666 -0.64,2.69333 -0.613334,1.2 -1.84,1.92 -1.226667,0.69333 -2.906667,0.69333 -0.613333,0 -1.413333,-0.18666 -0.293333,0.13333 -0.293333,0.42666 0,0.34667 0.4,0.56 0.426666,0.18667 1.413333,0.32 l 2.293333,0.29334 q 4.586667,0.61333 4.586667,3.86666 0,2.02667 -1.733334,3.22667 -1.706666,1.2 -4.746666,1.2 z m -0.506667,-12.16 q 1.146667,0 1.76,-0.74667 0.64,-0.77333 0.64,-2.10666 0,-1.33334 -0.64,-2.08 -0.613333,-0.77334 -1.76,-0.77334 -1.173333,0 -1.813333,0.77334 -0.613333,0.74666 -0.613333,2.08 0,1.33333 0.613333,2.10666 0.64,0.74667 1.813333,0.74667 z m 0.64,9.65333 q 3.413333,0 3.413333,-1.68 0,-0.74666 -0.586666,-1.12 -0.586667,-0.34666 -1.946667,-0.56 l -2.933333,-0.42666 q -1.52,0.61333 -1.52,1.86666 0,0.96 0.933333,1.44 0.933334,0.48 2.64,0.48 z"
         style="font-style:normal;font-variant:normal;font-weight:bold;font-stretch:normal;font-size:26.66666603px;line-height:0.75;font-family:Cabin;-inkscape-font-specification:'Cabin Bold';fill:#268bd2;fill-opacity:1"
         id="path2050" />
      <path
         d="m -49.279049,-203.35336 h 3.333333 l -7.146667,20.93334 h -3.333333 z"
         style="font-style:normal;font-variant:normal;font-weight:bold;font-stretch:normal;font-size:26.66666603px;line-height:0.75;font-family:Cabin;-inkscape-font-specification:'Cabin Bold';fill:#268bd2;fill-opacity:1"
         id="path2052" />
      <path
         d="m -44.575713,-203.35336 h 3.413333 v 7.38667 h 8.533333 v -7.38667 h 3.413333 v 18.66667 h -3.413333 v -8.08 h -8.533333 v 8.08 h -3.413333 z"
         style="font-style:normal;font-variant:normal;font-weight:bold;font-stretch:normal;font-size:26.66666603px;line-height:0.75;font-family:Cabin;-inkscape-font-specification:'Cabin Bold';fill:#268bd2;fill-opacity:1"
         id="path2054" />
      <path
         d="m -19.541135,-184.42002 q -2.32,0 -3.973333,-0.93334 -1.626667,-0.96 -2.453334,-2.53333 -0.8,-1.6 -0.8,-3.54667 0,-1.86666 0.773334,-3.41333 0.773333,-1.54667 2.24,-2.45333 1.466666,-0.93334 3.493333,-0.93334 1.866666,0 3.146666,0.77334 1.306667,0.77333 1.946667,2.08 0.666667,1.30666 0.666667,2.93333 0,0.8 -0.213334,1.81333 h -8.613333 q 0.266667,1.76 1.386667,2.64 1.12,0.85334 2.693333,0.85334 2.16,0 4,-1.09334 l 0.16,2.8 q -0.853333,0.45334 -2,0.74667 -1.12,0.26667 -2.453333,0.26667 z m 1.68,-8.45334 q 0,-1.04 -0.586667,-1.84 -0.586667,-0.8 -1.813333,-0.8 -1.226667,0 -1.973334,0.72 -0.746666,0.72 -1.013333,1.92 z"
         style="font-style:normal;font-variant:normal;font-weight:bold;font-stretch:normal;font-size:26.66666603px;line-height:0.75;font-family:Cabin;-inkscape-font-specification:'Cabin Bold';fill:#268bd2;fill-opacity:1"
         id="path2056" />
      <path
         d="m -9.3378018,-184.42002 q -1.6533332,0 -2.7733332,-1.06667 -1.093333,-1.09333 -1.093333,-2.93333 0,-1.73334 1.253333,-2.77334 1.253333,-1.06666 2.9599998,-1.49333 1.7066666,-0.45333 3.2799999,-0.50667 -0.053333,-1.17333 -0.6133333,-1.68 -0.5333333,-0.50666 -1.7866666,-0.50666 -0.88,0 -1.7333333,0.24 -0.8266665,0.24 -1.9199995,0.77333 l -0.293334,-2.69333 q 2.4266668,-1.17334 4.8533334,-1.17334 2.3466667,0 3.5733333,1.28 1.2533333,1.28 1.2533333,4.08 v 3.6 q 0,1.01334 0.08,1.46667 0.1066667,0.42667 0.32,0.56 0.24,0.10667 0.7733333,0.10667 h 0.42666666 l -0.29333336,2.72 h -1.1999999 q -1.0933333,0 -1.84,-0.4 -0.7466666,-0.42667 -1.1466666,-1.14667 -0.64,0.72 -1.76,1.14667 -1.0933333,0.4 -2.3199999,0.4 z m 1.3866666,-2.53334 q 0.5066666,0 1.1466666,-0.24 0.64,-0.26666 1.12,-0.72 v -3.04 q -1.6,0.08 -2.8266666,0.69334 -1.2266666,0.61333 -1.2266666,1.70666 0,0.82667 0.4266666,1.22667 0.4266667,0.37333 1.36,0.37333 z"
         style="font-style:normal;font-variant:normal;font-weight:bold;font-stretch:normal;font-size:26.66666603px;line-height:0.75;font-family:Cabin;-inkscape-font-specification:'Cabin Bold';fill:#268bd2;fill-opacity:1"
         id="path2058" />
      <path
         d="m 13.223448,-204.68669 v 20 h -3.12 l -0.05333,-0.85333 q -0.7733336,0.56 -1.6266669,0.85333 -0.8266667,0.26667 -1.9733333,0.26667 -1.9466667,0 -3.36,-0.93334 -1.3866666,-0.93333 -2.10666657,-2.50666 -0.71999998,-1.57334 -0.71999998,-3.46667 0,-1.89333 0.71999998,-3.46667 0.71999997,-1.57333 2.10666657,-2.50666 1.4133333,-0.93334 3.36,-0.93334 1.9466666,0 3.4666666,1.06667 v -7.52 z m -6.2933332,17.54667 q 1.5733333,0 2.3466666,-1.12 0.7999996,-1.12 0.7999996,-3.06667 0,-1.94667 -0.7999996,-3.06667 -0.7733333,-1.12 -2.3466666,-1.12 -1.5466667,0 -2.4266667,1.14667 -0.8533333,1.14667 -0.8533333,3.04 0,1.89333 0.8533333,3.04 0.88,1.14667 2.4266667,1.14667 z"
         style="font-style:normal;font-variant:normal;font-weight:bold;font-stretch:normal;font-size:26.66666603px;line-height:0.75;font-family:Cabin;-inkscape-font-specification:'Cabin Bold';fill:#268bd2;fill-opacity:1"
         id="path2060" />
      <path
         d="m -97.372381,-154.31336 q -2.826669,0 -5.013329,-1.2 -2.16,-1.2 -3.36,-3.38666 -1.2,-2.21334 -1.2,-5.12 0,-2.88 1.22666,-5.06667 1.25334,-2.21333 3.44,-3.41333 2.21334,-1.22667 5.013335,-1.22667 2.693334,0 4.826667,1.09333 l -0.373333,3.25334 q -1.146667,-0.50667 -2.213334,-0.77334 -1.04,-0.29333 -2.266666,-0.29333 -2.853329,0 -4.399999,1.76 -1.52,1.76 -1.52,4.66667 0,2.90666 1.49333,4.66666 1.52,1.76 4.346669,1.76 1.253333,0 2.293333,-0.26666 1.066667,-0.26667 2.266667,-0.8 l 0.373333,3.25333 q -2.32,1.09333 -4.933333,1.09333 z"
         style="font-style:normal;font-variant:normal;font-weight:bold;font-stretch:normal;font-size:26.66666603px;line-height:0.75;font-family:Cabin;-inkscape-font-specification:'Cabin Bold';fill:#268bd2;fill-opacity:1"
         id="path2062" />
      <path
         d="m -83.916132,-154.42002 q -2.32,0 -3.973333,-0.93334 -1.626666,-0.96 -2.453333,-2.53333 -0.8,-1.6 -0.8,-3.54667 0,-1.86666 0.773333,-3.41333 0.773334,-1.54667 2.24,-2.45333 1.466667,-0.93334 3.493333,-0.93334 1.866667,0 3.146667,0.77334 1.306667,0.77333 1.946667,2.08 0.666666,1.30666 0.666666,2.93333 0,0.8 -0.213333,1.81333 h -8.613333 q 0.266666,1.76 1.386666,2.64 1.12,0.85334 2.693334,0.85334 2.16,0 4,-1.09334 l 0.16,2.8 q -0.853334,0.45334 -2,0.74667 -1.12,0.26667 -2.453334,0.26667 z m 1.68,-8.45334 q 0,-1.04 -0.586666,-1.84 -0.586667,-0.8 -1.813334,-0.8 -1.226666,0 -1.973333,0.72 -0.746667,0.72 -1.013333,1.92 z"
         style="font-style:normal;font-variant:normal;font-weight:bold;font-stretch:normal;font-size:26.66666603px;line-height:0.75;font-family:Cabin;-inkscape-font-specification:'Cabin Bold';fill:#268bd2;fill-opacity:1"
         id="path2064" />
      <path
         d="m -69.872799,-168.23336 q 2.48,0 3.76,1.65334 1.28,1.65333 1.28,4.45333 v 7.44 h -3.306667 v -7.17333 q 0,-1.86667 -0.64,-2.74667 -0.613333,-0.90667 -2,-0.90667 -1.52,0 -2.506666,1.14667 v 9.68 h -3.306667 v -13.33333 h 3.093333 l 0.05333,0.93333 q 1.679999,-1.14667 3.573333,-1.14667 z"
         style="font-style:normal;font-variant:normal;font-weight:bold;font-stretch:normal;font-size:26.66666603px;line-height:0.75;font-family:Cabin;-inkscape-font-specification:'Cabin Bold';fill:#268bd2;fill-opacity:1"
         id="path2066" />
      <path
         d="m -57.6628,-154.42002 q -1.76,0 -2.666667,-1.01334 -0.906667,-1.04 -0.906667,-2.48 v -7.38666 h -1.893333 l 0.293333,-2.72 h 1.6 v -2.93334 l 3.306667,-0.34666 v 3.28 h 2.933333 v 2.72 h -2.933333 v 6.02666 q 0,1.06667 0.106667,1.49334 0.133333,0.4 0.506666,0.53333 0.4,0.10667 1.413334,0.10667 h 0.906666 l -0.293333,2.72 z"
         style="font-style:normal;font-variant:normal;font-weight:bold;font-stretch:normal;font-size:26.66666603px;line-height:0.75;font-family:Cabin;-inkscape-font-specification:'Cabin Bold';fill:#268bd2;fill-opacity:1"
         id="path2068" />
      <path
         d="m -46.416133,-154.42002 q -2.319999,0 -3.973333,-0.93334 -1.626666,-0.96 -2.453333,-2.53333 -0.8,-1.6 -0.8,-3.54667 0,-1.86666 0.773333,-3.41333 0.773334,-1.54667 2.24,-2.45333 1.466667,-0.93334 3.493333,-0.93334 1.866667,0 3.146667,0.77334 1.306667,0.77333 1.946667,2.08 0.666666,1.30666 0.666666,2.93333 0,0.8 -0.213333,1.81333 h -8.613333 q 0.266667,1.76 1.386667,2.64 1.119999,0.85334 2.693333,0.85334 2.16,0 4,-1.09334 l 0.16,2.8 q -0.853334,0.45334 -2,0.74667 -1.12,0.26667 -2.453334,0.26667 z m 1.68,-8.45334 q 0,-1.04 -0.586666,-1.84 -0.586667,-0.8 -1.813334,-0.8 -1.226666,0 -1.973333,0.72 -0.746666,0.72 -1.013333,1.92 z"
         style="font-style:normal;font-variant:normal;font-weight:bold;font-stretch:normal;font-size:26.66666603px;line-height:0.75;font-family:Cabin;-inkscape-font-specification:'Cabin Bold';fill:#268bd2;fill-opacity:1"
         id="path2070" />
      <path
         d="m -39.092803,-168.02002 h 3.093333 l 0.08,1.41333 q 0.586667,-0.66667 1.493334,-1.17333 0.933333,-0.50667 1.946666,-0.50667 0.32,0 0.586667,0.0533 l -0.24,3.25334 q -0.506667,-0.13334 -1.146667,-0.13334 -0.826666,0 -1.52,0.4 -0.693333,0.37334 -0.986666,0.93334 v 9.09333 h -3.306667 z"
         style="font-style:normal;font-variant:normal;font-weight:bold;font-stretch:normal;font-size:26.66666603px;line-height:0.75;font-family:Cabin;-inkscape-font-specification:'Cabin Bold';fill:#268bd2;fill-opacity:1"
         id="path2072" />
    </g>
  </g>
</svg>
