<?xml version="1.0" encoding="UTF-8" standalone="no"?>
<svg
   xmlns:dc="http://purl.org/dc/elements/1.1/"
   xmlns:cc="http://creativecommons.org/ns#"
   xmlns:rdf="http://www.w3.org/1999/02/22-rdf-syntax-ns#"
   xmlns:svg="http://www.w3.org/2000/svg"
   xmlns="http://www.w3.org/2000/svg"
   xmlns:sodipodi="http://sodipodi.sourceforge.net/DTD/sodipodi-0.dtd"
   xmlns:inkscape="http://www.inkscape.org/namespaces/inkscape"
   width="500"
   height="366.42499"
   version="1.1"
   id="svg4757"
   sodipodi:docname="emotional-themes.svg"
   inkscape:version="0.92.4 5da689c313, 2019-01-14">
  <sodipodi:namedview
     pagecolor="#ffffff"
     bordercolor="#666666"
     borderopacity="1"
     objecttolerance="10"
     gridtolerance="10"
     guidetolerance="10"
     inkscape:pageopacity="0"
     inkscape:pageshadow="2"
     inkscape:window-width="1600"
     inkscape:window-height="845"
     id="namedview4759"
     showgrid="false"
     inkscape:zoom="1.4142136"
     inkscape:cx="181.66589"
     inkscape:cy="188.47329"
     inkscape:window-x="0"
     inkscape:window-y="0"
     inkscape:window-maximized="1"
     inkscape:current-layer="g4755"
     fit-margin-top="20"
     fit-margin-left="20"
     fit-margin-right="20"
     fit-margin-bottom="20"
     inkscape:snap-object-midpoints="true" />
  <title
     id="title4722">Enneagram</title>
  <defs
     id="defs4726">
    <style
       type="text/css"
       id="style4724"><![CDATA[
polyline, line, circle {
	fill:none;
	stroke: black;
	stroke-width: 1;
}
text {
	font-size: 18pt;
	text-anchor: middle;
	font-family: serif;
	fill: black;
}
]]></style>
  </defs>
  <metadata
     id="Metadata">
    <rdf:RDF>
      <cc:Work
         rdf:about="">
        <dc:format>image/svg+xml</dc:format>
        <dc:type
           rdf:resource="http://purl.org/dc/dcmitype/StillImage" />
        <dc:title>Enneagram</dc:title>
        <dc:date>05.02.2008</dc:date>
        <dc:creator>
          <cc:Agent>
            <dc:title>Twisp</dc:title>
          </cc:Agent>
        </dc:creator>
        <dc:rights>
          <cc:Agent>
            <dc:title />
          </cc:Agent>
        </dc:rights>
        <dc:subject>
          <rdf:Bag>
            <rdf:li>Enneagram</rdf:li>
          </rdf:Bag>
        </dc:subject>
        <dc:description>Enneagram of Personality</dc:description>
        <dc:contributor>
          <cc:Agent>
            <dc:title />
          </cc:Agent>
        </dc:contributor>
        <cc:license
           rdf:resource="http://web.resource.org/cc/PublicDomain" />
      </cc:Work>
      <cc:License
         rdf:about="http://web.resource.org/cc/PublicDomain">
        <cc:permits
           rdf:resource="http://web.resource.org/cc/Reproduction" />
        <cc:permits
           rdf:resource="http://web.resource.org/cc/Distribution" />
        <cc:permits
           rdf:resource="http://web.resource.org/cc/DerivativeWorks" />
      </cc:License>
    </rdf:RDF>
  </metadata>
  <g
     transform="translate(174.04155,434.45419)"
     id="g4755">
    <polyline
       points=" 0, -100 -86.6025404, 50 86.6025404, 50 0, -100  "
       id="polyline4729"
       style="fill:none;stroke:#586e75;stroke-width:4.4000001;stroke-miterlimit:4;stroke-dasharray:none;stroke-opacity:1"
       transform="matrix(0.99623189,0,0,0.98599529,70.542999,-227.69759)" />
    <polyline
       points=" -64.278761, -76.6044443 -34.2020143,93.9692621 -98.4807753, -17.3648178 64.278761, -76.6044443 34.2020143,93.9692621 98.4807753, -17.3648178 -64.278761, -76.6044443 "
       id="polyline4731"
       style="fill:none;stroke:#586e75;stroke-width:4.4000001;stroke-miterlimit:4;stroke-dasharray:none;stroke-opacity:1"
       transform="matrix(0.98856823,0,0,0.98985147,69.927619,-225.33404)" />
    <g
       transform="translate(70.189449,-217.29452)"
       id="g4751"
       style="fill:#6c71c4;fill-opacity:1;stroke:none;stroke-width:5.30000019;stroke-miterlimit:4;stroke-dasharray:none;stroke-opacity:1">
      <g
         aria-label="1"
         style="font-style:normal;font-variant:normal;font-weight:bold;font-stretch:normal;font-size:29.33333397px;font-family:Cabin;-inkscape-font-specification:'Cabin Bold';font-variant-ligatures:normal;font-variant-caps:normal;font-variant-numeric:normal;font-feature-settings:normal;text-align:center;writing-mode:lr-tb;text-anchor:middle;fill:#6c71c4;fill-opacity:1;stroke:none;stroke-width:5.30000019;stroke-miterlimit:4;stroke-dasharray:none;stroke-opacity:1"
         id="text4733">
        <path
           d="m 75.944451,-107.14933 q -1.232,0.82133 -2.581333,1.056 l -0.322667,-3.168 q 0.968,-0.20533 2.170667,-1.17333 1.202667,-0.99734 1.613333,-2.024 h 2.874667 v 20.533329 h -3.754667 z"
           style="font-style:normal;font-variant:normal;font-weight:bold;font-stretch:normal;font-size:29.33333397px;font-family:Cabin;-inkscape-font-specification:'Cabin Bold';font-variant-ligatures:normal;font-variant-caps:normal;font-variant-numeric:normal;font-feature-settings:normal;text-align:center;writing-mode:lr-tb;text-anchor:middle;fill:#6c71c4;fill-opacity:1;stroke:none;stroke-width:5.30000019;stroke-miterlimit:4;stroke-dasharray:none;stroke-opacity:1"
           id="path1270" />
      </g>
      <g
         aria-label="2"
         style="font-style:normal;font-variant:normal;font-weight:bold;font-stretch:normal;font-size:29.33333397px;font-family:Cabin;-inkscape-font-specification:'Cabin Bold';font-variant-ligatures:normal;font-variant-caps:normal;font-variant-numeric:normal;font-feature-settings:normal;text-align:center;writing-mode:lr-tb;text-anchor:middle;fill:#6c71c4;fill-opacity:1;stroke:none;stroke-width:5.30000019;stroke-miterlimit:4;stroke-dasharray:none;stroke-opacity:1"
         id="text4735">
        <path
           d="m 117.10191,-29.139115 q 1.70134,-2.610667 2.31734,-3.930667 0.64533,-1.32 0.64533,-2.493334 0,-1.261333 -0.73333,-1.965333 -0.704,-0.733333 -1.96534,-0.733333 -1.408,0 -2.61066,0.674666 -1.20267,0.674667 -2.34667,1.818667 l -0.46933,-3.784 q 1.37866,-1.114667 2.87466,-1.672 1.496,-0.557333 3.31467,-0.557333 1.78933,0 3.05067,0.762666 1.26133,0.733334 1.87733,1.994667 0.64533,1.261333 0.64533,2.786667 0,1.730666 -0.76266,3.549333 -0.73334,1.818667 -2.61067,4.664 l -2.40533,3.666667 h 6.512 v 3.52 h -12.73067 z"
           style="font-style:normal;font-variant:normal;font-weight:bold;font-stretch:normal;font-size:29.33333397px;font-family:Cabin;-inkscape-font-specification:'Cabin Bold';font-variant-ligatures:normal;font-variant-caps:normal;font-variant-numeric:normal;font-feature-settings:normal;text-align:center;writing-mode:lr-tb;text-anchor:middle;fill:#6c71c4;fill-opacity:1;stroke:none;stroke-width:5.30000019;stroke-miterlimit:4;stroke-dasharray:none;stroke-opacity:1"
           id="path1267" />
      </g>
      <g
         aria-label="3"
         style="font-style:normal;font-variant:normal;font-weight:bold;font-stretch:normal;font-size:29.33333397px;font-family:Cabin;-inkscape-font-specification:'Cabin Bold';font-variant-ligatures:normal;font-variant-caps:normal;font-variant-numeric:normal;font-feature-settings:normal;text-align:center;writing-mode:lr-tb;text-anchor:middle;fill:#6c71c4;fill-opacity:1;stroke:none;stroke-width:5.30000019;stroke-miterlimit:4;stroke-dasharray:none;stroke-opacity:1"
         id="text4737">
        <path
           d="m 106.43013,49.146666 q 1.70134,0.557334 2.66934,1.848 0.99733,1.290667 0.99733,3.168001 0,2.962666 -1.99467,4.605333 -1.96533,1.642667 -5.30933,1.642667 -1.70133,0 -3.226667,-0.381334 -1.496,-0.381333 -2.552,-0.938666 l 0.909333,-3.168 Q 100.44613,57.184 102.7928,57.184 q 1.64267,0 2.58133,-0.762667 0.968,-0.762666 0.968,-2.258666 0,-3.109334 -3.784,-3.109334 h -2.08266 v -3.52 h 2.05333 q 1.584,0 2.40533,-0.704 0.85067,-0.733333 0.85067,-2.053333 0,-1.144 -0.792,-1.818667 -0.76267,-0.674667 -2.2,-0.674667 -1.17333,0 -2.288,0.352 -1.085334,0.352 -2.258667,1.026667 L 97.6888,40.346666 q 2.464,-1.290666 5.48533,-1.290666 2.93334,0 4.54667,1.466666 1.64267,1.437334 1.64267,3.784 0,1.672 -0.76267,2.933334 -0.76267,1.232 -2.17067,1.906666 z"
           style="font-style:normal;font-variant:normal;font-weight:bold;font-stretch:normal;font-size:29.33333397px;font-family:Cabin;-inkscape-font-specification:'Cabin Bold';font-variant-ligatures:normal;font-variant-caps:normal;font-variant-numeric:normal;font-feature-settings:normal;text-align:center;writing-mode:lr-tb;text-anchor:middle;fill:#6c71c4;fill-opacity:1;stroke:none;stroke-width:5.30000019;stroke-miterlimit:4;stroke-dasharray:none;stroke-opacity:1"
           id="path1264" />
      </g>
      <g
         aria-label="4"
         style="font-style:normal;font-variant:normal;font-weight:bold;font-stretch:normal;font-size:29.33333397px;font-family:Cabin;-inkscape-font-specification:'Cabin Bold';font-variant-ligatures:normal;font-variant-caps:normal;font-variant-numeric:normal;font-feature-settings:normal;text-align:center;writing-mode:lr-tb;text-anchor:middle;fill:#6c71c4;fill-opacity:1;stroke:none;stroke-width:5.30000019;stroke-miterlimit:4;stroke-dasharray:none;stroke-opacity:1"
         id="text4739">
        <path
           d="m 48.623707,105.01911 v 3.05066 h -2.64 v 4.69334 h -3.608 v -4.69334 H 32.138374 L 43.431707,92.229774 h 2.552 v 12.789336 z m -6.248,0 v -6.30667 l -4.429333,6.30667 z"
           style="font-style:normal;font-variant:normal;font-weight:bold;font-stretch:normal;font-size:29.33333397px;font-family:Cabin;-inkscape-font-specification:'Cabin Bold';font-variant-ligatures:normal;font-variant-caps:normal;font-variant-numeric:normal;font-feature-settings:normal;text-align:center;writing-mode:lr-tb;text-anchor:middle;fill:#6c71c4;fill-opacity:1;stroke:none;stroke-width:5.30000019;stroke-miterlimit:4;stroke-dasharray:none;stroke-opacity:1"
           id="path1261" />
      </g>
      <g
         aria-label="5"
         style="font-style:normal;font-variant:normal;font-weight:bold;font-stretch:normal;font-size:29.33333397px;font-family:Cabin;-inkscape-font-specification:'Cabin Bold';font-variant-ligatures:normal;font-variant-caps:normal;font-variant-numeric:normal;font-feature-settings:normal;text-align:center;writing-mode:lr-tb;text-anchor:middle;fill:#6c71c4;fill-opacity:1;stroke:none;stroke-width:5.30000019;stroke-miterlimit:4;stroke-dasharray:none;stroke-opacity:1"
         id="text4741">
        <path
           d="m -41.293353,99.85644 q 2.992,0 4.810667,1.76 1.848,1.73067 1.848,4.752 0,2.08267 -0.938667,3.608 -0.909333,1.52533 -2.552,2.34667 -1.613333,0.82133 -3.725333,0.82133 -3.226667,0 -5.632001,-1.64267 l 0.88,-3.40266 q 1.173334,0.73333 2.288,1.144 1.114667,0.38133 2.405334,0.38133 1.672,0 2.64,-0.88 0.997333,-0.88 0.997333,-2.376 0,-1.61333 -1.144,-2.52267 -1.114666,-0.90933 -3.197333,-0.90933 -1.642667,0 -3.842667,0.41067 l 1.32,-11.117336 h 9.68 l -0.234666,3.637333 h -6.629334 l -0.498666,4.077333 q 0.704,-0.088 1.525333,-0.088 z"
           style="font-style:normal;font-variant:normal;font-weight:bold;font-stretch:normal;font-size:29.33333397px;font-family:Cabin;-inkscape-font-specification:'Cabin Bold';font-variant-ligatures:normal;font-variant-caps:normal;font-variant-numeric:normal;font-feature-settings:normal;text-align:center;writing-mode:lr-tb;text-anchor:middle;fill:#6c71c4;fill-opacity:1;stroke:none;stroke-width:5.30000019;stroke-miterlimit:4;stroke-dasharray:none;stroke-opacity:1"
           id="path1258" />
      </g>
      <g
         aria-label="6"
         style="font-style:normal;font-variant:normal;font-weight:bold;font-stretch:normal;font-size:29.33333397px;font-family:Cabin;-inkscape-font-specification:'Cabin Bold';font-variant-ligatures:normal;font-variant-caps:normal;font-variant-numeric:normal;font-feature-settings:normal;text-align:center;writing-mode:lr-tb;text-anchor:middle;fill:#6c71c4;fill-opacity:1;stroke:none;stroke-width:5.30000019;stroke-miterlimit:4;stroke-dasharray:none;stroke-opacity:1"
         id="text4743">
        <path
           d="m -102.93305,47.650666 q 1.70133,0 3.08,0.792 1.378667,0.792 2.141334,2.2 0.792,1.408 0.792,3.197334 0,1.936 -0.821334,3.432 -0.821333,1.496 -2.34667,2.317333 -1.52533,0.821334 -3.57866,0.821334 -2.112,0 -3.72534,-0.938667 -1.61333,-0.968 -2.49333,-2.698667 -0.88,-1.730666 -0.88,-4.018666 0,-3.109334 1.408,-5.837334 1.408,-2.728 3.54933,-4.722667 2.17067,-1.994666 4.42934,-3.138666 l 2.610664,2.053333 q -2.141334,1.056 -4.458664,3.050667 -2.31734,1.965333 -3.40267,4.488 1.52533,-0.997334 3.696,-0.997334 z m -0.67467,9.650667 q 1.408,0 2.34667,-0.938666 0.93867,-0.968 0.93867,-2.376 0,-1.378667 -0.93867,-2.288001 -0.93867,-0.938666 -2.34667,-0.938666 -1.43733,0 -2.376,0.938666 -0.90933,0.909334 -0.90933,2.288001 0,1.408 0.93867,2.376 0.93866,0.938666 2.34666,0.938666 z"
           style="font-style:normal;font-variant:normal;font-weight:bold;font-stretch:normal;font-size:29.33333397px;font-family:Cabin;-inkscape-font-specification:'Cabin Bold';font-variant-ligatures:normal;font-variant-caps:normal;font-variant-numeric:normal;font-feature-settings:normal;text-align:center;writing-mode:lr-tb;text-anchor:middle;fill:#6c71c4;fill-opacity:1;stroke:none;stroke-width:5.30000019;stroke-miterlimit:4;stroke-dasharray:none;stroke-opacity:1"
           id="path1255" />
      </g>
      <g
         aria-label="7"
         style="font-style:normal;font-variant:normal;font-weight:bold;font-stretch:normal;font-size:29.33333397px;font-family:Cabin;-inkscape-font-specification:'Cabin Bold';font-variant-ligatures:normal;font-variant-caps:normal;font-variant-numeric:normal;font-feature-settings:normal;text-align:center;writing-mode:lr-tb;text-anchor:middle;fill:#6c71c4;fill-opacity:1;stroke:none;stroke-width:5.30000019;stroke-miterlimit:4;stroke-dasharray:none;stroke-opacity:1"
         id="text4745">
        <path
           d="m -110.89883,-41.371116 -8.56533,20.533334 h -3.93067 l 7.09867,-17.013334 h -8.096 v -3.52 z"
           style="font-style:normal;font-variant:normal;font-weight:bold;font-stretch:normal;font-size:29.33333397px;font-family:Cabin;-inkscape-font-specification:'Cabin Bold';font-variant-ligatures:normal;font-variant-caps:normal;font-variant-numeric:normal;font-feature-settings:normal;text-align:center;writing-mode:lr-tb;text-anchor:middle;fill:#6c71c4;fill-opacity:1;stroke:none;stroke-width:5.30000019;stroke-miterlimit:4;stroke-dasharray:none;stroke-opacity:1"
           id="path1252" />
      </g>
      <g
         aria-label="8"
         style="font-style:normal;font-variant:normal;font-weight:bold;font-stretch:normal;font-size:29.33333397px;font-family:Cabin;-inkscape-font-specification:'Cabin Bold';font-variant-ligatures:normal;font-variant-caps:normal;font-variant-numeric:normal;font-feature-settings:normal;text-align:center;writing-mode:lr-tb;text-anchor:middle;fill:#6c71c4;fill-opacity:1;stroke:none;stroke-width:5.30000019;stroke-miterlimit:4;stroke-dasharray:none;stroke-opacity:1"
         id="text4747">
        <path
           d="m -73.020743,-103.10133 q 1.466667,0.792 2.288,2.17067 0.821333,1.378662 0.821333,3.109329 0,1.848 -0.88,3.285333 -0.88,1.437334 -2.522666,2.229334 -1.642667,0.792 -3.813334,0.792 -2.2,0 -3.842666,-0.792 -1.613334,-0.792 -2.493334,-2.229334 -0.88,-1.437333 -0.88,-3.285333 0,-1.76 0.821334,-3.109329 0.850666,-1.37867 2.346666,-2.17067 -1.056,-0.73333 -1.642666,-1.81867 -0.586667,-1.11466 -0.586667,-2.40533 0,-1.43733 0.674667,-2.69867 0.674666,-1.26133 2.082666,-2.05333 1.408,-0.792 3.52,-0.792 2.112,0 3.490667,0.792 1.378667,0.792 2.024,2.05333 0.645333,1.26134 0.645333,2.69867 0,1.32 -0.528,2.40533 -0.528,1.08534 -1.525333,1.81867 z m -4.106667,-6.83467 q -1.408,0 -2.2,0.73334 -0.792,0.704 -0.792,1.90666 0,1.144 0.792,1.90667 0.821334,0.76267 2.2,0.76267 1.378667,0 2.112,-0.76267 0.762667,-0.76267 0.762667,-1.90667 0,-1.20266 -0.762667,-1.90666 -0.733333,-0.73334 -2.112,-0.73334 z m 0,15.194669 q 1.76,0 2.757334,-0.88 0.997333,-0.909334 0.997333,-2.434667 0,-1.437333 -1.026667,-2.346662 -0.997333,-0.90934 -2.728,-0.90934 -1.730666,0 -2.757333,0.90934 -0.997333,0.909329 -0.997333,2.346662 0,1.525333 0.997333,2.434667 0.997333,0.88 2.757333,0.88 z"
           style="font-style:normal;font-variant:normal;font-weight:bold;font-stretch:normal;font-size:29.33333397px;font-family:Cabin;-inkscape-font-specification:'Cabin Bold';font-variant-ligatures:normal;font-variant-caps:normal;font-variant-numeric:normal;font-feature-settings:normal;text-align:center;writing-mode:lr-tb;text-anchor:middle;fill:#6c71c4;fill-opacity:1;stroke:none;stroke-width:5.30000019;stroke-miterlimit:4;stroke-dasharray:none;stroke-opacity:1"
           id="path1249" />
      </g>
      <g
         aria-label="9"
         style="font-style:normal;font-variant:normal;font-weight:bold;font-stretch:normal;font-size:29.33333397px;font-family:Cabin;-inkscape-font-specification:'Cabin Bold';font-variant-ligatures:normal;font-variant-caps:normal;font-variant-numeric:normal;font-feature-settings:normal;text-align:center;writing-mode:lr-tb;text-anchor:middle;fill:#6c71c4;fill-opacity:1;stroke:none;stroke-width:5.30000019;stroke-miterlimit:4;stroke-dasharray:none;stroke-opacity:1"
         id="text4749">
        <path
           d="m -0.09533334,-140.944 q 2.11200004,0 3.72533344,0.968 1.6133333,0.93867 2.4933334,2.66933 0.88,1.73067 0.88,4.01867 0,2.992 -1.3786667,5.66133 -1.3493334,2.64 -3.4320001,4.576 Q 0.11,-121.11467 -2.09,-120 l -2.6106668,-2.05333 q 2.0240001,-0.99734 4.22400012,-2.87467 2.22933338,-1.87733 3.31466678,-4.224 -1.4666667,0.968 -3.66666678,0.968 -1.70133342,0 -3.08000012,-0.792 -1.3786666,-0.792 -2.1706667,-2.2 -0.7626666,-1.408 -0.7626666,-3.19733 0,-1.936 0.8213333,-3.432 0.8213334,-1.496 2.3466667,-2.31734 1.5253334,-0.82133 3.57866676,-0.82133 z M -0.154,-131.41067 q 1.408,0 2.3173334,-0.88 0.9093333,-0.88 0.9093333,-2.22933 0,-1.34933 -0.9093333,-2.25867 Q 1.254,-137.71733 -0.154,-137.71733 q -1.3786667,0 -2.3173334,0.93866 -0.9093333,0.90934 -0.9093333,2.25867 0,1.34933 0.9093333,2.22933 0.9386667,0.88 2.3173334,0.88 z"
           style="font-style:normal;font-variant:normal;font-weight:bold;font-stretch:normal;font-size:29.33333397px;font-family:Cabin;-inkscape-font-specification:'Cabin Bold';font-variant-ligatures:normal;font-variant-caps:normal;font-variant-numeric:normal;font-feature-settings:normal;text-align:center;writing-mode:lr-tb;text-anchor:middle;fill:#6c71c4;fill-opacity:1;stroke:none;stroke-width:5.30000019;stroke-miterlimit:4;stroke-dasharray:none;stroke-opacity:1"
           id="path1246" />
      </g>
    </g>
    <circle
       cx="70.189461"
       cy="-226.29451"
       r="100"
       id="circle4753"
       style="fill:none;stroke:#586e75;stroke-width:5.80000019;stroke-miterlimit:4;stroke-dasharray:none;stroke-opacity:1" />
    <path
       style="opacity:1;fill:none;stroke:#268bd2;stroke-width:7.80000019;stroke-linecap:round;stroke-linejoin:round;stroke-miterlimit:4;stroke-dasharray:none;stroke-opacity:1"
       d="M 206.87584,-309.72647 72.408379,-219.23822 -54.95848,-302.18209"
       id="path4761"
       inkscape:connector-curvature="0"
       sodipodi:nodetypes="ccc" />
    <path
       style="opacity:1;fill:none;stroke:#268bd2;stroke-width:7.80000019;stroke-linecap:round;stroke-linejoin:round;stroke-miterlimit:4;stroke-dasharray:none;stroke-opacity:1"
       d="M 72.408379,-219.23822 V -91.984756"
       id="path4763"
       inkscape:connector-curvature="0"
       sodipodi:nodetypes="cc" />
    <g
       aria-label="Anger/Rage"
       style="font-style:normal;font-variant:normal;font-weight:normal;font-stretch:normal;font-size:40px;line-height:0.75;font-family:Cabin;-inkscape-font-specification:Cabin;text-align:center;letter-spacing:0px;word-spacing:0px;text-anchor:middle;fill:#268bd2;fill-opacity:1;stroke:none"
       id="text839">
      <path
         d="M 10.805521,-380.88086 H 4.0055216 l -1.5466666,4.42667 h -3.30666663 l 6.63999983,-18.66667 h 3.2266666 l 6.6400002,18.66667 h -3.306667 z m -1.0666662,-2.98667 -2.32,-6.66666 -2.3466666,6.66666 z"
         style="font-style:normal;font-variant:normal;font-weight:bold;font-stretch:normal;font-size:26.66666603px;line-height:0.75;font-family:Cabin;-inkscape-font-specification:'Cabin Bold';fill:#268bd2;fill-opacity:1"
         id="path1293" />
      <path
         d="m 24.005521,-390.00086 q 2.48,0 3.76,1.65333 1.28,1.65334 1.28,4.45334 v 7.44 h -3.306667 v -7.17334 q 0,-1.86666 -0.64,-2.74666 -0.613333,-0.90667 -2,-0.90667 -1.52,0 -2.506666,1.14667 v 9.68 h -3.306667 v -13.33334 h 3.093333 l 0.05333,0.93334 q 1.68,-1.14667 3.573333,-1.14667 z"
         style="font-style:normal;font-variant:normal;font-weight:bold;font-stretch:normal;font-size:26.66666603px;line-height:0.75;font-family:Cabin;-inkscape-font-specification:'Cabin Bold';fill:#268bd2;fill-opacity:1"
         id="path1295" />
      <path
         d="m 37.305105,-369.73419 q -2.826667,0 -4.506667,-1.04 -1.68,-1.01334 -1.68,-2.77334 0,-1.92 2.16,-3.14666 -1.173333,-0.72 -1.173333,-1.89334 0,-0.61333 0.346667,-1.09333 0.373333,-0.48 0.986666,-0.77333 -1.013333,-0.72 -1.546666,-1.84 -0.506667,-1.12 -0.506667,-2.45334 0,-1.46666 0.64,-2.66666 0.64,-1.22667 1.866667,-1.92 1.226666,-0.72 2.906666,-0.72 1.76,0 3.04,0.85333 0.453333,-0.24 1.2,-0.4 0.773333,-0.18667 1.653333,-0.18667 h 0.853334 l -0.213334,2.08 h -1.2 q -0.453333,0 -0.746666,0.0267 0.8,1.22667 0.8,2.93333 0,1.46667 -0.64,2.69334 -0.613334,1.2 -1.84,1.92 -1.226667,0.69333 -2.906667,0.69333 -0.613333,0 -1.413333,-0.18667 -0.293333,0.13334 -0.293333,0.42667 0,0.34667 0.4,0.56 0.426666,0.18667 1.413333,0.32 l 2.293333,0.29333 q 4.586667,0.61334 4.586667,3.86667 0,2.02667 -1.733334,3.22667 -1.706666,1.2 -4.746666,1.2 z m -0.506667,-12.16 q 1.146667,0 1.76,-0.74667 0.64,-0.77333 0.64,-2.10667 0,-1.33333 -0.64,-2.08 -0.613333,-0.77333 -1.76,-0.77333 -1.173333,0 -1.813333,0.77333 -0.613333,0.74667 -0.613333,2.08 0,1.33334 0.613333,2.10667 0.64,0.74667 1.813333,0.74667 z m 0.64,9.65333 q 3.413333,0 3.413333,-1.68 0,-0.74667 -0.586666,-1.12 -0.586667,-0.34667 -1.946667,-0.56 l -2.933333,-0.42667 q -1.52,0.61334 -1.52,1.86667 0,0.96 0.933333,1.44 0.933334,0.48 2.64,0.48 z"
         style="font-style:normal;font-variant:normal;font-weight:bold;font-stretch:normal;font-size:26.66666603px;line-height:0.75;font-family:Cabin;-inkscape-font-specification:'Cabin Bold';fill:#268bd2;fill-opacity:1"
         id="path1297" />
      <path
         d="m 51.733022,-376.18753 q -2.32,0 -3.973334,-0.93333 -1.626666,-0.96 -2.453333,-2.53333 -0.8,-1.6 -0.8,-3.54667 0,-1.86667 0.773333,-3.41333 0.773334,-1.54667 2.24,-2.45334 1.466667,-0.93333 3.493334,-0.93333 1.866666,0 3.146666,0.77333 1.306667,0.77334 1.946667,2.08 0.666666,1.30667 0.666666,2.93334 0,0.8 -0.213333,1.81333 h -8.613333 q 0.266667,1.76 1.386667,2.64 1.12,0.85333 2.693333,0.85333 2.16,0 4,-1.09333 l 0.16,2.8 q -0.853334,0.45333 -2,0.74667 -1.12,0.26666 -2.453333,0.26666 z m 1.679999,-8.45333 q 0,-1.04 -0.586666,-1.84 -0.586667,-0.8 -1.813333,-0.8 -1.226667,0 -1.973334,0.72 -0.746666,0.72 -1.013333,1.92 z"
         style="font-style:normal;font-variant:normal;font-weight:bold;font-stretch:normal;font-size:26.66666603px;line-height:0.75;font-family:Cabin;-inkscape-font-specification:'Cabin Bold';fill:#268bd2;fill-opacity:1"
         id="path1299" />
      <path
         d="m 59.056355,-389.78753 h 3.093333 l 0.08,1.41334 q 0.586667,-0.66667 1.493334,-1.17334 0.933333,-0.50666 1.946666,-0.50666 0.32,0 0.586667,0.0533 l -0.24,3.25333 q -0.506667,-0.13333 -1.146667,-0.13333 -0.826666,0 -1.52,0.4 -0.693333,0.37333 -0.986666,0.93333 v 9.09334 h -3.306667 z"
         style="font-style:normal;font-variant:normal;font-weight:bold;font-stretch:normal;font-size:26.66666603px;line-height:0.75;font-family:Cabin;-inkscape-font-specification:'Cabin Bold';fill:#268bd2;fill-opacity:1"
         id="path1301" />
      <path
         d="m 72.411772,-395.12086 h 3.333333 l -7.146667,20.93333 h -3.333333 z"
         style="font-style:normal;font-variant:normal;font-weight:bold;font-stretch:normal;font-size:26.66666603px;line-height:0.75;font-family:Cabin;-inkscape-font-specification:'Cabin Bold';fill:#268bd2;fill-opacity:1"
         id="path1303" />
      <path
         d="m 77.1151,-395.12086 h 6.826666 q 2.986667,0 4.693334,1.44 1.733333,1.41333 1.733333,4.21333 0,1.94667 -0.826667,3.2 -0.826666,1.22667 -2.346666,1.97334 l 4.213333,7.84 H 87.5951 l -3.6,-6.93334 h -0.133334 -3.333333 v 6.93334 H 77.1151 Z m 5.92,8.88 q 3.76,0 3.76,-3.04 0,-1.46667 -0.853334,-2.21333 -0.853333,-0.77334 -2.773333,-0.77334 h -2.64 v 6.02667 z"
         style="font-style:normal;font-variant:normal;font-weight:bold;font-stretch:normal;font-size:26.66666603px;line-height:0.75;font-family:Cabin;-inkscape-font-specification:'Cabin Bold';fill:#268bd2;fill-opacity:1"
         id="path1305" />
      <path
         d="m 96.050933,-376.18753 q -1.653333,0 -2.773333,-1.06666 -1.093333,-1.09334 -1.093333,-2.93334 0,-1.73333 1.253333,-2.77333 1.253333,-1.06667 2.96,-1.49333 1.706666,-0.45334 3.28,-0.50667 -0.05333,-1.17333 -0.613334,-1.68 -0.533333,-0.50667 -1.786666,-0.50667 -0.88,0 -1.733333,0.24 -0.826667,0.24 -1.92,0.77334 l -0.293334,-2.69334 q 2.426667,-1.17333 4.853333,-1.17333 2.346664,0 3.573334,1.28 1.25333,1.28 1.25333,4.08 v 3.6 q 0,1.01333 0.08,1.46667 0.10667,0.42666 0.32,0.56 0.24,0.10666 0.77334,0.10666 h 0.42666 l -0.29333,2.72 h -1.2 q -1.09333,0 -1.84,-0.4 -0.74667,-0.42666 -1.14667,-1.14666 -0.639997,0.72 -1.759997,1.14666 -1.093333,0.4 -2.32,0.4 z m 1.386667,-2.53333 q 0.506666,0 1.146666,-0.24 0.64,-0.26667 1.12,-0.72 v -3.04 q -1.6,0.08 -2.826666,0.69333 -1.226667,0.61334 -1.226667,1.70667 0,0.82667 0.426667,1.22667 0.426667,0.37333 1.36,0.37333 z"
         style="font-style:normal;font-variant:normal;font-weight:bold;font-stretch:normal;font-size:26.66666603px;line-height:0.75;font-family:Cabin;-inkscape-font-specification:'Cabin Bold';fill:#268bd2;fill-opacity:1"
         id="path1307" />
      <path
         d="m 111.73218,-369.73419 q -2.82666,0 -4.50666,-1.04 -1.68,-1.01334 -1.68,-2.77334 0,-1.92 2.16,-3.14666 -1.17334,-0.72 -1.17334,-1.89334 0,-0.61333 0.34667,-1.09333 0.37333,-0.48 0.98667,-0.77333 -1.01334,-0.72 -1.54667,-1.84 -0.50667,-1.12 -0.50667,-2.45334 0,-1.46666 0.64,-2.66666 0.64,-1.22667 1.86667,-1.92 1.22667,-0.72 2.90667,-0.72 1.76,0 3.04,0.85333 0.45333,-0.24 1.2,-0.4 0.77333,-0.18667 1.65333,-0.18667 h 0.85333 l -0.21333,2.08 h -1.2 q -0.45333,0 -0.74667,0.0267 0.8,1.22667 0.8,2.93333 0,1.46667 -0.64,2.69334 -0.61333,1.2 -1.84,1.92 -1.22666,0.69333 -2.90666,0.69333 -0.61334,0 -1.41334,-0.18667 -0.29333,0.13334 -0.29333,0.42667 0,0.34667 0.4,0.56 0.42667,0.18667 1.41333,0.32 l 2.29334,0.29333 q 4.58666,0.61334 4.58666,3.86667 0,2.02667 -1.73333,3.22667 -1.70667,1.2 -4.74667,1.2 z m -0.50666,-12.16 q 1.14666,0 1.76,-0.74667 0.64,-0.77333 0.64,-2.10667 0,-1.33333 -0.64,-2.08 -0.61334,-0.77333 -1.76,-0.77333 -1.17334,0 -1.81334,0.77333 -0.61333,0.74667 -0.61333,2.08 0,1.33334 0.61333,2.10667 0.64,0.74667 1.81334,0.74667 z m 0.64,9.65333 q 3.41333,0 3.41333,-1.68 0,-0.74667 -0.58667,-1.12 -0.58666,-0.34667 -1.94666,-0.56 l -2.93334,-0.42667 q -1.52,0.61334 -1.52,1.86667 0,0.96 0.93334,1.44 0.93333,0.48 2.64,0.48 z"
         style="font-style:normal;font-variant:normal;font-weight:bold;font-stretch:normal;font-size:26.66666603px;line-height:0.75;font-family:Cabin;-inkscape-font-specification:'Cabin Bold';fill:#268bd2;fill-opacity:1"
         id="path1309" />
      <path
         d="m 126.1601,-376.18753 q -2.32,0 -3.97333,-0.93333 -1.62667,-0.96 -2.45334,-2.53333 -0.8,-1.6 -0.8,-3.54667 0,-1.86667 0.77334,-3.41333 0.77333,-1.54667 2.24,-2.45334 1.46666,-0.93333 3.49333,-0.93333 1.86667,0 3.14667,0.77333 1.30666,0.77334 1.94666,2.08 0.66667,1.30667 0.66667,2.93334 0,0.8 -0.21333,1.81333 h -8.61334 q 0.26667,1.76 1.38667,2.64 1.12,0.85333 2.69333,0.85333 2.16,0 4,-1.09333 l 0.16,2.8 q -0.85333,0.45333 -2,0.74667 -1.12,0.26666 -2.45333,0.26666 z m 1.68,-8.45333 q 0,-1.04 -0.58667,-1.84 -0.58666,-0.8 -1.81333,-0.8 -1.22667,0 -1.97333,0.72 -0.74667,0.72 -1.01334,1.92 z"
         style="font-style:normal;font-variant:normal;font-weight:bold;font-stretch:normal;font-size:26.66666603px;line-height:0.75;font-family:Cabin;-inkscape-font-specification:'Cabin Bold';fill:#268bd2;fill-opacity:1"
         id="path1311" />
    </g>
    <g
       aria-label="Shame"
       style="font-style:normal;font-variant:normal;font-weight:normal;font-stretch:normal;font-size:40px;line-height:0.75;font-family:Cabin;-inkscape-font-specification:Cabin;text-align:center;letter-spacing:0px;word-spacing:0px;text-anchor:middle;fill:#268bd2;fill-opacity:1;stroke:none"
       id="text839-0">
      <path
         d="m 203.3625,-184.31336 q -1.57333,0 -3.38667,-0.42666 -1.78666,-0.42667 -2.8,-0.93334 l 0.4,-3.62666 q 3.52,1.70666 6.18667,1.70666 1.41333,0 2.21333,-0.53333 0.8,-0.56 0.8,-1.62667 0,-0.8 -0.45333,-1.30666 -0.42667,-0.53334 -1.25333,-0.88 -0.82667,-0.37334 -2.64,-1.01334 -1.70667,-0.58666 -2.82667,-1.22666 -1.12,-0.66667 -1.78667,-1.68 -0.64,-1.04 -0.64,-2.53334 0,-2.4 1.76,-3.86666 1.76,-1.46667 5.04,-1.46667 1.54667,0 3.06667,0.34667 1.54667,0.34666 2.82667,0.85333 l -0.34667,3.49333 q -1.65333,-0.72 -3.04,-1.06666 -1.36,-0.37334 -2.72,-0.37334 -1.52,0 -2.32,0.50667 -0.8,0.50667 -0.8,1.46667 0,0.74666 0.42667,1.22666 0.42666,0.48 1.14666,0.8 0.74667,0.32 2.18667,0.77334 3.22667,1.01333 4.69333,2.34666 1.49334,1.30667 1.49334,3.6 0,2.18667 -1.52,3.81334 -1.52,1.62666 -5.70667,1.62666 z"
         style="font-style:normal;font-variant:normal;font-weight:bold;font-stretch:normal;font-size:26.66666603px;line-height:0.75;font-family:Cabin;-inkscape-font-specification:'Cabin Bold';fill:#268bd2;fill-opacity:1"
         id="path1273" />
      <path
         d="m 219.475,-198.23336 q 2.53333,0 3.76,1.65334 1.25333,1.62666 1.25333,4.48 v 7.41333 h -3.30666 v -7.17333 q 0,-1.89334 -0.61334,-2.77334 -0.61333,-0.88 -1.94666,-0.88 -1.57334,0 -2.58667,1.14667 v 9.68 h -3.30667 v -20 h 3.30667 v 7.52 q 0.8,-0.50667 1.62667,-0.77333 0.82666,-0.29334 1.81333,-0.29334 z"
         style="font-style:normal;font-variant:normal;font-weight:bold;font-stretch:normal;font-size:26.66666603px;line-height:0.75;font-family:Cabin;-inkscape-font-specification:'Cabin Bold';fill:#268bd2;fill-opacity:1"
         id="path1275" />
      <path
         d="m 230.3225,-184.42002 q -1.65333,0 -2.77333,-1.06667 -1.09334,-1.09333 -1.09334,-2.93333 0,-1.73334 1.25334,-2.77334 1.25333,-1.06666 2.96,-1.49333 1.70666,-0.45333 3.28,-0.50667 -0.0533,-1.17333 -0.61334,-1.68 -0.53333,-0.50666 -1.78666,-0.50666 -0.88,0 -1.73334,0.24 -0.82666,0.24 -1.92,0.77333 l -0.29333,-2.69333 q 2.42667,-1.17334 4.85333,-1.17334 2.34667,0 3.57334,1.28 1.25333,1.28 1.25333,4.08 v 3.6 q 0,1.01334 0.08,1.46667 0.10667,0.42667 0.32,0.56 0.24,0.10667 0.77333,0.10667 h 0.42667 l -0.29333,2.72 h -1.2 q -1.09334,0 -1.84,-0.4 -0.74667,-0.42667 -1.14667,-1.14667 -0.64,0.72 -1.76,1.14667 -1.09333,0.4 -2.32,0.4 z m 1.38667,-2.53334 q 0.50666,0 1.14666,-0.24 0.64,-0.26666 1.12,-0.72 v -3.04 q -1.6,0.08 -2.82666,0.69334 -1.22667,0.61333 -1.22667,1.70666 0,0.82667 0.42667,1.22667 0.42666,0.37333 1.36,0.37333 z"
         style="font-style:normal;font-variant:normal;font-weight:bold;font-stretch:normal;font-size:26.66666603px;line-height:0.75;font-family:Cabin;-inkscape-font-specification:'Cabin Bold';fill:#268bd2;fill-opacity:1"
         id="path1277" />
      <path
         d="m 255.68375,-198.23336 q 2.66667,0 3.94667,1.62667 1.30666,1.6 1.30666,4.50667 v 7.41333 h -3.30666 v -7.17333 q 0,-1.89334 -0.58667,-2.77334 -0.58667,-0.88 -1.92,-0.88 -1.30667,0 -1.97333,0.90667 -0.66667,0.88 -0.66667,2.50667 v 7.41333 h -3.30667 v -7.17333 q 0,-1.89334 -0.61333,-2.77334 -0.61333,-0.88 -1.94667,-0.88 -1.57333,0 -2.58666,1.14667 v 9.68 h -3.30667 v -13.33333 h 2.82667 l 0.10666,1.06666 q 1.81334,-1.28 3.92,-1.28 2.56,0 3.81334,1.84 0.69333,-0.88 1.81333,-1.36 1.12,-0.48 2.48,-0.48 z"
         style="font-style:normal;font-variant:normal;font-weight:bold;font-stretch:normal;font-size:26.66666603px;line-height:0.75;font-family:Cabin;-inkscape-font-specification:'Cabin Bold';fill:#268bd2;fill-opacity:1"
         id="path1279" />
      <path
         d="m 270.3275,-184.42002 q -2.32,0 -3.97334,-0.93334 -1.62666,-0.96 -2.45333,-2.53333 -0.8,-1.6 -0.8,-3.54667 0,-1.86666 0.77333,-3.41333 0.77334,-1.54667 2.24,-2.45333 1.46667,-0.93334 3.49334,-0.93334 1.86666,0 3.14666,0.77334 1.30667,0.77333 1.94667,2.08 0.66667,1.30666 0.66667,2.93333 0,0.8 -0.21334,1.81333 h -8.61333 q 0.26667,1.76 1.38667,2.64 1.12,0.85334 2.69333,0.85334 2.16,0 4,-1.09334 l 0.16,2.8 q -0.85333,0.45334 -2,0.74667 -1.12,0.26667 -2.45333,0.26667 z m 1.68,-8.45334 q 0,-1.04 -0.58667,-1.84 -0.58667,-0.8 -1.81333,-0.8 -1.22667,0 -1.97334,0.72 -0.74666,0.72 -1.01333,1.92 z"
         style="font-style:normal;font-variant:normal;font-weight:bold;font-stretch:normal;font-size:26.66666603px;line-height:0.75;font-family:Cabin;-inkscape-font-specification:'Cabin Bold';fill:#268bd2;fill-opacity:1"
         id="path1281" />
    </g>
    <g
       aria-label="Fear"
       style="font-style:normal;font-variant:normal;font-weight:normal;font-stretch:normal;font-size:40px;line-height:0.75;font-family:Cabin;-inkscape-font-specification:Cabin;text-align:center;letter-spacing:0px;word-spacing:0px;text-anchor:middle;fill:#268bd2;fill-opacity:1;stroke:none"
       id="text839-0-5">
      <path
         d="m -123.45059,-203.35336 h 11.49334 v 3.30667 h -8.08 v 3.97333 h 6.24 v 3.30667 h -6.24 v 8.08 h -3.41334 z"
         style="font-style:normal;font-variant:normal;font-weight:bold;font-stretch:normal;font-size:26.66666603px;line-height:0.75;font-family:Cabin;-inkscape-font-specification:'Cabin Bold';fill:#268bd2;fill-opacity:1"
         id="path1284" />
      <path
         d="m -104.45767,-184.42002 q -2.32,0 -3.97333,-0.93334 -1.62667,-0.96 -2.45334,-2.53333 -0.8,-1.6 -0.8,-3.54667 0,-1.86666 0.77334,-3.41333 0.77333,-1.54667 2.24,-2.45333 1.46666,-0.93334 3.49333,-0.93334 1.86666,0 3.14666,0.77334 1.30667,0.77333 1.94667,2.08 0.666668,1.30666 0.666668,2.93333 0,0.8 -0.213333,1.81333 h -8.613335 q 0.26667,1.76 1.38667,2.64 1.12,0.85334 2.69333,0.85334 2.16,0 4,-1.09334 l 0.16,2.8 q -0.85333,0.45334 -2,0.74667 -1.12,0.26667 -2.45333,0.26667 z m 1.68,-8.45334 q 0,-1.04 -0.58667,-1.84 -0.58667,-0.8 -1.81333,-0.8 -1.22667,0 -1.97334,0.72 -0.74666,0.72 -1.01333,1.92 z"
         style="font-style:normal;font-variant:normal;font-weight:bold;font-stretch:normal;font-size:26.66666603px;line-height:0.75;font-family:Cabin;-inkscape-font-specification:'Cabin Bold';fill:#268bd2;fill-opacity:1"
         id="path1286" />
      <path
         d="m -94.254338,-184.42002 q -1.653334,0 -2.773334,-1.06667 -1.093333,-1.09333 -1.093333,-2.93333 0,-1.73334 1.253333,-2.77334 1.253334,-1.06666 2.96,-1.49333 1.706667,-0.45333 3.28,-0.50667 -0.05333,-1.17333 -0.613333,-1.68 -0.533333,-0.50666 -1.786667,-0.50666 -0.88,0 -1.733333,0.24 -0.826667,0.24 -1.92,0.77333 l -0.293333,-2.69333 q 2.426666,-1.17334 4.853333,-1.17334 2.346667,0 3.573333,1.28 1.253334,1.28 1.253334,4.08 v 3.6 q 0,1.01334 0.08,1.46667 0.106667,0.42667 0.32,0.56 0.24,0.10667 0.773334,0.10667 h 0.426666 l -0.293333,2.72 h -1.2 q -1.093333,0 -1.84,-0.4 -0.746666,-0.42667 -1.146666,-1.14667 -0.64,0.72 -1.76,1.14667 -1.093334,0.4 -2.32,0.4 z m 1.386666,-2.53334 q 0.506667,0 1.146667,-0.24 0.64,-0.26666 1.12,-0.72 v -3.04 q -1.6,0.08 -2.826667,0.69334 -1.226666,0.61333 -1.226666,1.70666 0,0.82667 0.426666,1.22667 0.426667,0.37333 1.36,0.37333 z"
         style="font-style:normal;font-variant:normal;font-weight:bold;font-stretch:normal;font-size:26.66666603px;line-height:0.75;font-family:Cabin;-inkscape-font-specification:'Cabin Bold';fill:#268bd2;fill-opacity:1"
         id="path1288" />
      <path
         d="m -83.85309,-198.02002 h 3.093333 l 0.08,1.41333 q 0.586667,-0.66667 1.493333,-1.17333 0.933334,-0.50667 1.946667,-0.50667 0.32,0 0.586667,0.0533 l -0.24,3.25334 q -0.506667,-0.13334 -1.146667,-0.13334 -0.826667,0 -1.52,0.4 -0.693333,0.37334 -0.986667,0.93334 v 9.09333 h -3.306666 z"
         style="font-style:normal;font-variant:normal;font-weight:bold;font-stretch:normal;font-size:26.66666603px;line-height:0.75;font-family:Cabin;-inkscape-font-specification:'Cabin Bold';fill:#268bd2;fill-opacity:1"
         id="path1290" />
    </g>
  </g>
</svg>
